<svg width="41" height="49" viewBox="0 0 41 49" fill="none" xmlns="http://www.w3.org/2000/svg">
<path d="M2.82938 18.1799C-1.30749 25.2429 1.32218 35.9626 5.89663 42.4618C8.17962 45.7119 10.4922 48.6282 13.6578 48.6282C13.7169 48.6282 13.7772 48.6272 13.8385 48.6241C15.3267 48.5658 16.4016 48.1155 17.4405 47.6797C18.6074 47.1898 19.8155 46.6844 21.7085 46.6844C23.5095 46.6844 24.6584 47.1742 25.7693 47.6464C26.8653 48.1134 27.9931 48.596 29.6609 48.5648C33.227 48.4993 35.417 45.3521 37.3491 42.5752C39.3658 39.6766 40.3773 36.8622 40.7176 35.7858L40.7313 35.7431C40.7969 35.5518 40.7038 35.3438 40.5178 35.2595C40.5178 35.2595 40.4946 35.2491 40.4893 35.247C39.8615 34.9943 34.3516 32.5887 34.2935 26.0343C34.2396 20.7083 38.4261 17.8887 39.2664 17.377L39.3055 17.3521C39.3964 17.2949 39.4598 17.2033 39.482 17.0993C39.5032 16.9943 39.481 16.8861 39.4197 16.7977C36.53 12.6365 32.1003 12.0094 30.3173 11.9345C30.0594 11.9085 29.792 11.896 29.5235 11.896C27.4287 11.896 25.4226 12.6739 23.8097 13.3001C22.6967 13.7317 21.736 14.105 21.0733 14.105C20.3281 14.105 19.361 13.7275 18.2428 13.2907C16.7451 12.7062 15.0487 12.0437 13.2529 12.0437C13.2096 12.0437 13.1684 12.0447 13.1272 12.0458C8.95013 12.1061 5.00457 14.4576 2.82938 18.1799Z" fill="white"/>
<path d="M30.3199 0.481606C27.7917 0.58249 24.7572 2.11447 22.9445 4.20495C21.4024 5.96054 19.8984 8.89035 20.2948 11.842C20.3201 12.0271 20.4734 12.1686 20.6615 12.1842C20.8327 12.1966 21.0061 12.2039 21.1794 12.2039C23.6516 12.2039 26.3193 10.8571 28.1415 8.68961C30.0588 6.40152 31.028 3.46445 30.7352 0.833141C30.712 0.626173 30.5281 0.472246 30.3199 0.481606Z" fill="white"/>
</svg>
