<svg width="25" height="22" viewBox="0 0 25 22" fill="none" xmlns="http://www.w3.org/2000/svg">
<path d="M6.53125 14.3645C6.53125 14.7612 6.68901 15.1414 6.96933 15.4219C7.24964 15.7022 7.63009 15.8598 8.02672 15.8598L16.9985 15.8598C17.5328 15.8598 18.0264 15.5747 18.2935 15.1122C18.5607 14.6496 18.5607 14.0795 18.2935 13.617C18.0264 13.1541 17.5328 12.8691 16.9985 12.8691L8.02672 12.8691C7.6301 12.8691 7.24963 13.0269 6.96933 13.3072C6.68901 13.5875 6.53125 13.968 6.53125 14.3646" fill="#051B66"/>
<path d="M20.2447 8.48364C20.6009 8.73449 21.0484 8.81741 21.4708 8.71129C21.893 8.60489 22.2479 8.31989 22.4429 7.93059C23.094 6.62494 23.5055 5.21321 23.6577 3.76237C23.7375 3.01551 23.4893 2.2708 22.9774 1.72114C22.4942 1.20223 21.8173 0.907069 21.1083 0.906268L19.9868 0.906268C19.5635 0.904182 19.1593 1.08176 18.8744 1.39441C18.5894 1.70732 18.4501 2.12638 18.4916 2.54746C18.5385 2.92531 18.7239 3.27235 19.0118 3.52141C19.2997 3.7707 19.6697 3.90447 20.0504 3.89691L20.6262 3.89691L20.6259 3.89691C20.4848 4.81479 20.205 5.70609 19.7962 6.53999C19.6274 6.86438 19.5797 7.23831 19.6621 7.59452C19.7443 7.95097 19.9508 8.2662 20.2447 8.48369" fill="#051B66"/>
<path d="M12.9488 3.89735L13.5246 3.89735C13.3832 4.81523 13.1035 5.70627 12.6946 6.54043C12.5258 6.86482 12.4784 7.23876 12.5605 7.59496C12.6427 7.95142 12.8494 8.26664 13.1433 8.48413C13.4993 8.73498 13.947 8.8179 14.3691 8.71178C14.7916 8.60538 15.1465 8.32037 15.3412 7.93108C15.9926 6.62543 16.4041 5.2137 16.5564 3.76285C16.6362 3.016 16.3879 2.27129 15.8758 1.72163C15.3929 1.20272 14.7159 0.907558 14.0067 0.906756L12.8854 0.906756C12.4622 0.90467 12.058 1.08225 11.773 1.3949C11.4877 1.70781 11.3487 2.12686 11.3899 2.54795C11.4371 2.9258 11.6223 3.27284 11.9101 3.5219C12.198 3.77119 12.5681 3.90496 12.9488 3.8974" fill="#051B66"/>
<path d="M22.9765 11.3738C22.5799 11.3738 22.1994 11.5313 21.9191 11.8119C21.6388 12.0922 21.481 12.4727 21.481 12.869L21.481 17.3552C21.481 17.7515 21.3235 18.132 21.0432 18.4123C20.7626 18.6929 20.3825 18.8504 19.9858 18.8504L5.03279 18.8504C4.63617 18.8504 4.25596 18.6929 3.97539 18.4123C3.69508 18.132 3.53758 17.7515 3.53758 17.3552L3.53758 6.14038C3.53758 5.74376 3.69508 5.36329 3.97539 5.08298C4.25597 4.80241 4.63616 4.64491 5.03279 4.64491L7.27588 4.64491C7.80991 4.64491 8.30356 4.3599 8.57078 3.89732C8.8378 3.43473 8.8378 2.86469 8.57078 2.40215C8.3035 1.9393 7.80991 1.6543 7.27588 1.6543L5.03279 1.6543C3.84295 1.6543 2.70211 2.12705 1.86087 2.96829C1.01943 3.80954 0.546875 4.95057 0.546875 6.14048L0.546875 17.3553C0.546875 18.5448 1.01937 19.6859 1.86087 20.5272C2.70211 21.3684 3.84289 21.8412 5.03279 21.8412L19.9858 21.8412C21.1757 21.8412 22.3165 21.3684 23.1577 20.5272C23.9992 19.6859 24.4717 18.5449 24.4717 17.3553L24.4717 12.8691C24.4717 12.4728 24.3142 12.0923 24.0339 11.812C23.7533 11.5314 23.3732 11.3739 22.9765 11.3739" fill="#051B66"/>
</svg>
