<svg width="25" height="20" viewBox="0 0 25 20" fill="none" xmlns="http://www.w3.org/2000/svg">
<path d="M20.8154 0.915527L4.20087 0.915527C3.25664 0.915527 2.35107 1.29062 1.6834 1.9583C1.01572 2.62598 0.640625 3.53154 0.640625 4.47578L0.640625 16.3433C0.640625 17.2875 1.01572 18.1931 1.6834 18.8607C2.35107 19.5284 3.25664 19.9035 4.20087 19.9035H20.8154C21.7596 19.9035 22.6652 19.5284 23.3328 18.8607C24.0005 18.1931 24.3756 17.2875 24.3756 16.3433V4.47578C24.3756 3.53154 24.0005 2.62598 23.3328 1.9583C22.6652 1.29062 21.7596 0.915527 20.8154 0.915527ZM20.8154 3.28903L13.1015 8.5938C12.9211 8.69796 12.7164 8.75279 12.5081 8.75279C12.2998 8.75279 12.0952 8.69796 11.9147 8.5938L4.20087 3.28903L20.8154 3.28903Z" fill="#051B66"/>
</svg>
