<svg width="25" height="19" viewBox="0 0 25 19" fill="none" xmlns="http://www.w3.org/2000/svg">
<path d="M22.0083 4.6102C22.0286 4.80468 22.0286 4.99441 22.0286 5.20311C22.0286 11.2745 17.104 18.2851 8.08418 18.2851C5.30845 18.2851 2.73496 17.5309 0.550781 16.2218C0.940091 16.255 1.33446 16.2929 1.72377 16.2929C4.01918 16.2929 6.14269 15.5577 7.82127 14.315C5.67754 14.2818 3.8675 12.9489 3.23551 11.1133C3.53381 11.1654 3.85233 11.1986 4.1658 11.1986C4.61073 11.1986 5.04049 11.1465 5.45002 11.0421C3.21022 10.62 1.51647 8.75109 1.51647 6.53123L1.51647 6.46009C2.20409 6.82532 2.95237 7.01979 3.73605 7.03877C2.4316 6.21818 1.55692 4.81891 1.55692 3.20619C1.55692 2.36662 1.79961 1.57924 2.22937 0.896203C4.65118 3.67577 8.25103 5.51617 12.3363 5.7059C12.2604 5.37387 12.2048 5.02287 12.2048 4.65763C12.2048 2.11997 14.4041 0.0566406 17.1091 0.0566406C18.5248 0.0566406 19.7938 0.616349 20.6887 1.50809C21.7909 1.29938 22.8527 0.929406 23.8032 0.388671C23.4493 1.47488 22.6656 2.36662 21.6595 2.94056C22.6454 2.81724 23.5959 2.57533 24.4756 2.20535C23.7981 3.13978 22.974 3.9414 22.0083 4.6102Z" fill="#1C9CEA"/>
</svg>
