<svg width="25" height="19" viewBox="0 0 25 19" fill="none" xmlns="http://www.w3.org/2000/svg">
<path d="M20.8052 1.97307C19.2278 1.2605 17.5814 0.74265 15.8742 0.460938C15.6431 0.883507 15.4322 1.31436 15.2457 1.75764C13.433 1.47593 11.588 1.47593 9.77128 1.75764C9.58069 1.31436 9.36576 0.879364 9.12246 0.460938C7.41931 0.74265 5.76077 1.25636 4.19145 1.99793C1.07712 6.64619 0.233661 11.166 0.643227 15.6403C2.48019 17.0033 4.51586 18.039 6.70156 18.6894C7.19223 18.0307 7.62612 17.3264 7.99919 16.5931C7.2936 16.3321 6.61235 16.009 5.96353 15.6196C6.1379 15.487 6.28794 15.3586 6.46231 15.2301C10.3065 17.0447 14.7347 17.0447 18.579 15.2301C18.7533 15.3586 18.9034 15.487 19.0777 15.6196C18.4289 16.009 17.7355 16.3321 17.0218 16.5931C17.3908 17.3306 17.8247 18.0307 18.3194 18.6894C20.5051 18.0183 22.557 17.0033 24.3778 15.6403C24.8522 10.4493 23.51 5.95434 20.8052 1.97307ZM8.51825 12.8729C7.3301 12.8729 6.37715 11.7916 6.37715 10.4742C6.37715 9.1526 7.3301 8.05061 8.51825 8.05061C9.73072 8.05061 10.6837 9.13189 10.6837 10.4742C10.6593 11.7916 9.73072 12.8729 8.51825 12.8729ZM16.4784 12.8729C15.2903 12.8729 14.3373 11.7916 14.3373 10.4742C14.3373 9.1526 15.2903 8.05061 16.4784 8.05061C17.6909 8.05061 18.6439 9.13189 18.6236 10.4742C18.5992 11.8123 17.6706 12.8729 16.4784 12.8729Z" fill="#5562EA"/>
</svg>
