<svg width="29" height="30" viewBox="0 0 29 30" fill="none" xmlns="http://www.w3.org/2000/svg">
<path d="M14.5232 13.9692C15.4594 13.9717 16.3738 13.6949 17.1509 13.1739C17.9279 12.6529 18.5327 11.9111 18.8888 11.0422C19.2448 10.1734 19.3361 9.21647 19.1511 8.29258C18.9662 7.36869 18.5132 6.51929 17.8495 5.85179C17.1859 5.18429 16.3413 4.72868 15.4227 4.54256C14.504 4.35644 13.5525 4.44817 12.6885 4.80617C11.8245 5.16416 11.0868 5.77233 10.5687 6.55377C10.0506 7.33521 9.77533 8.25482 9.77772 9.19632C9.78093 10.4588 10.2827 11.6709 11.1726 12.566C12.0626 13.4611 13.2678 13.9659 14.5232 13.9692Z" fill="#051B66"/>
<path d="M21.6326 25.8633C21.9468 25.8641 22.2479 25.7393 22.4695 25.5163C22.6911 25.2933 22.8152 24.9904 22.8144 24.6743C22.8089 22.4612 21.9298 20.3364 20.3706 18.7674C18.8114 17.1984 16.6998 16.3137 14.5003 16.3079C12.3008 16.3021 10.1936 17.1758 8.64218 18.7366C7.0908 20.2974 6.22236 22.4176 6.22789 24.6307C6.22868 24.9469 6.35426 25.2504 6.577 25.4745C6.79974 25.6987 7.1014 25.8251 7.41562 25.8259L21.6326 25.8633Z" fill="#051B66"/>
</svg>
