<svg width="28" height="23" viewBox="0 0 28 23" fill="none" xmlns="http://www.w3.org/2000/svg">
<path d="M25.2038 5.53672C25.2267 5.77143 25.2267 6.00042 25.2267 6.25231C25.2267 13.5799 19.6692 22.041 9.48997 22.041C6.35747 22.041 3.4532 21.1308 0.988281 19.5508C1.42763 19.5908 1.87269 19.6366 2.31204 19.6366C4.90249 19.6366 7.29893 18.7493 9.19327 17.2494C6.774 17.2094 4.73131 15.6007 4.01808 13.3853C4.35473 13.4482 4.71419 13.4883 5.06795 13.4883C5.57007 13.4883 6.05506 13.4254 6.51723 13.2994C3.98955 12.7899 2.0781 10.5344 2.0781 7.85522V7.76935C2.85409 8.21015 3.69855 8.44487 4.58296 8.46777C3.11085 7.47739 2.12374 5.78861 2.12374 3.84221C2.12374 2.82894 2.39763 1.87864 2.88262 1.05429C5.61572 4.40896 9.67827 6.63014 14.2886 6.85913C14.203 6.4584 14.1402 6.03477 14.1402 5.59397C14.1402 2.53126 16.6223 0.0410156 19.6749 0.0410156C21.2725 0.0410156 22.7047 0.71653 23.7146 1.79277C24.9585 1.54089 26.1567 1.09436 27.2294 0.441744C26.83 1.7527 25.9456 2.82894 24.8101 3.52163C25.9228 3.37279 26.9955 3.08083 27.9883 2.6343C27.2237 3.76207 26.2936 4.72954 25.2038 5.53672Z" fill="white"/>
</svg>
