<svg width="34" height="26" viewBox="0 0 34 26" fill="none" xmlns="http://www.w3.org/2000/svg">
<path d="M28.931 2.11488C26.7552 1.13761 24.4843 0.427379 22.1296 0.0410156C21.8107 0.620561 21.5199 1.21147 21.2626 1.81942C18.7624 1.43306 16.2175 1.43306 13.7117 1.81942C13.4488 1.21147 13.1523 0.614879 12.8167 0.0410156C10.4676 0.427379 8.1799 1.13192 6.0153 2.14897C1.71966 8.52397 0.556259 14.7228 1.12118 20.8592C3.65494 22.7285 6.46277 24.149 9.47755 25.041C10.1543 24.1376 10.7528 23.1717 11.2674 22.166C10.2942 21.8081 9.3545 21.3649 8.45957 20.8308C8.70008 20.649 8.90703 20.4728 9.14754 20.2967C14.45 22.7853 20.5578 22.7853 25.8603 20.2967C26.1008 20.4728 26.3077 20.649 26.5482 20.8308C25.6533 21.3649 24.6969 21.8081 23.7125 22.166C24.2214 23.1774 24.8199 24.1376 25.5023 25.041C28.5171 24.1206 31.3473 22.7285 33.8587 20.8592C34.5131 13.7399 32.6617 7.57511 28.931 2.11488ZM11.9833 17.0637C10.3445 17.0637 9.03008 15.5808 9.03008 13.774C9.03008 11.9615 10.3445 10.4501 11.9833 10.4501C13.6557 10.4501 14.9702 11.9331 14.9702 13.774C14.9366 15.5808 13.6557 17.0637 11.9833 17.0637ZM22.963 17.0637C21.3241 17.0637 20.0097 15.5808 20.0097 13.774C20.0097 11.9615 21.3241 10.4501 22.963 10.4501C24.6353 10.4501 25.9498 11.9331 25.9218 13.774C25.8882 15.6092 24.6074 17.0637 22.963 17.0637Z" fill="white"/>
</svg>
