<svg width="856" height="307" viewBox="0 0 856 307" fill="none" xmlns="http://www.w3.org/2000/svg">
<path d="M39.6456 281.665C37.4544 280.443 35.2441 279.154 33.0149 277.798C30.7666 276.375 28.5518 274.943 26.3705 273.501C24.2132 272.016 22.1347 270.491 20.1351 268.925C18.1356 267.36 16.2674 265.811 14.5306 264.279C14.1489 263.954 13.9679 263.571 13.9878 263.131C14.0076 262.692 14.0918 262.288 14.2406 261.921C15.123 259.934 16.1322 257.821 17.2682 255.582C18.4043 253.343 19.6193 251.064 20.9131 248.743C22.1591 246.509 23.3307 244.459 24.4279 242.592C25.5491 240.683 26.6963 238.929 27.8695 237.33C28.267 236.819 28.609 236.559 28.8957 236.55C29.2064 236.498 29.5336 236.568 29.8773 236.76C30.6937 237.215 31.7628 237.924 33.0848 238.886C34.3639 239.825 35.6929 240.876 37.072 242.039C38.432 243.136 39.7131 244.273 40.9153 245.45C42.0985 246.56 43 247.57 43.6197 248.479C43.9105 248.867 43.9362 249.275 43.6965 249.705C43.5767 249.92 43.414 250.11 43.2082 250.277C43.0025 250.444 42.7513 250.642 42.4547 250.871C41.6557 251.496 40.8758 252.187 40.1148 252.946C39.3109 253.68 38.6334 254.542 38.0823 255.53C37.4593 256.647 37.3812 257.646 37.8481 258.525C38.272 259.381 38.9995 260.097 40.0307 260.672C40.89 261.151 41.5898 261.26 42.1302 260.998C42.6276 260.712 43.032 260.29 43.3435 259.731C43.631 259.216 43.8421 258.686 43.9768 258.141C44.1354 257.554 44.306 256.945 44.4886 256.314C44.6952 255.641 44.9257 254.925 45.1802 254.165C45.4586 253.363 45.8614 252.489 46.3885 251.544C46.9396 250.556 47.4089 249.916 47.7964 249.625C48.2079 249.292 48.6499 249.256 49.1225 249.52C50.1537 250.095 51.2898 250.785 52.5308 251.59C53.7289 252.37 54.958 253.197 56.218 254.068C57.4781 254.94 58.6712 255.831 59.7974 256.74C60.9475 257.607 61.9138 258.399 62.6963 259.117C63.078 259.443 63.1371 259.842 62.8736 260.315C62.7058 260.615 62.3179 261.16 61.7098 261.947C61.0587 262.71 60.4577 263.586 59.9066 264.574C59.2357 265.778 58.9449 266.855 59.0341 267.806C59.0804 268.733 59.7265 269.544 60.9725 270.238C61.7029 270.646 62.5577 270.982 63.5368 271.246C64.5159 271.51 65.4855 271.741 66.4456 271.939C67.3628 272.112 68.2035 272.271 68.9678 272.416C69.6891 272.536 70.1786 272.669 70.4364 272.812C71.2528 273.268 71.3804 274.099 70.8194 275.307C70.6228 275.761 70.1411 276.675 69.3744 278.05C68.6506 279.449 67.8455 280.943 66.9589 282.533C66.0724 284.123 65.2123 285.614 64.3786 287.008C63.6119 288.383 63.0393 289.359 62.6609 289.937C62.2825 290.515 61.926 290.851 61.5913 290.946C61.2567 291.041 60.7502 291.04 60.0719 290.943C59.2407 290.818 58.1421 290.515 56.7764 290.035C55.3915 289.488 53.8254 288.812 52.0779 288.006C50.2874 287.177 48.337 286.23 46.2267 285.166C44.1165 284.102 41.9227 282.934 39.6456 281.665Z" fill="white"/>
<path d="M59.6898 247.117C56.6622 245.008 54.1563 242.753 52.1719 240.352C50.1471 237.922 48.7107 235.423 47.8624 232.853C47.0423 230.244 46.8648 227.572 47.33 224.839C47.7953 222.105 48.9698 219.386 50.8537 216.681C52.7095 214.017 54.7967 212.054 57.1152 210.791C59.3933 209.5 61.8422 208.868 64.4619 208.894C67.0693 208.852 69.8212 209.419 72.7177 210.598C75.6018 211.707 78.598 213.345 81.7063 215.51C85.2586 217.984 88.0312 220.545 90.0242 223.192C91.9769 225.812 93.2605 228.444 93.8752 231.091C94.518 233.697 94.5542 236.27 93.9837 238.81C93.3729 241.323 92.2943 243.689 90.7478 245.909C89.2294 248.089 87.44 249.84 85.3796 251.163C83.2788 252.457 80.9088 253.234 78.2696 253.494C75.6586 253.714 72.8003 253.342 69.6948 252.378C66.5771 251.345 63.2421 249.592 59.6898 247.117ZM67.7523 233.219C70.7798 235.327 73.0599 236.616 74.5924 237.084C76.125 237.552 77.2146 237.322 77.8614 236.393C78.5362 235.424 78.3543 234.308 77.3156 233.045C76.305 231.742 74.3263 230.064 71.3796 228.011C68.4731 225.987 66.2396 224.761 64.6789 224.333C63.1182 223.905 62.0426 224.115 61.4522 224.963C60.8617 225.811 61.0375 226.893 61.9796 228.208C62.9216 229.524 64.8459 231.194 67.7523 233.219Z" fill="white"/>
<path d="M61.2167 185.903C60.6729 185.326 60.4507 184.823 60.5499 184.394C60.6426 183.896 60.8268 183.442 61.1025 183.031C62.3999 181.232 63.7541 179.479 65.1652 177.773C66.639 175.992 68.107 174.333 69.5691 172.797C70.4602 171.874 71.2659 171.711 71.9861 172.306C72.2135 172.495 72.9814 173.226 74.2898 174.5C75.5604 175.742 77.1374 177.27 79.0209 179.084C80.8979 180.828 82.9645 182.729 85.2205 184.787C87.4766 186.845 89.7228 188.799 91.9592 190.649C94.5368 192.782 97.1771 194.838 99.8801 196.819C102.583 198.8 105.078 200.608 107.364 202.244C109.681 203.841 111.645 205.211 113.255 206.351C114.897 207.454 115.926 208.178 116.343 208.523C116.722 208.836 116.912 209.185 116.914 209.569C116.915 209.954 116.809 210.313 116.596 210.648C115.951 211.582 115.205 212.561 114.358 213.585C113.549 214.639 112.69 215.716 111.781 216.816C110.903 217.877 110.022 218.904 109.137 219.896C108.29 220.919 107.453 221.854 106.625 222.701C106.336 222.973 105.955 223.202 105.484 223.386C104.974 223.539 104.366 223.387 103.659 222.929C101.152 221.175 98.5245 219.257 95.7771 217.175C92.9917 215.063 90.1776 212.831 87.3347 210.479C82.6723 206.622 78.0629 202.585 73.5063 198.369C68.9811 194.114 64.8846 189.959 61.2167 185.903Z" fill="white"/>
<path d="M80.2115 163.679C79.7047 163.069 79.5141 162.553 79.6398 162.131C79.7633 161.64 79.9754 161.198 80.276 160.806C81.6828 159.09 83.1435 157.425 84.6579 155.81C86.2397 154.124 87.8079 152.559 89.3627 151.117C90.3095 150.252 91.1238 150.139 91.8055 150.778C92.0208 150.98 92.7418 151.757 93.9685 153.11C95.1592 154.43 96.6382 156.053 98.4053 157.98C100.17 159.838 102.115 161.864 104.238 164.058C106.362 166.252 108.482 168.342 110.599 170.327C113.039 172.616 115.547 174.833 118.121 176.978C120.696 179.123 123.073 181.082 125.253 182.857C127.466 184.596 129.341 186.085 130.878 187.323C132.448 188.526 133.43 189.312 133.825 189.683C134.183 190.019 134.351 190.379 134.329 190.763C134.306 191.146 134.179 191.499 133.945 191.819C133.243 192.712 132.437 193.643 131.529 194.611C130.656 195.614 129.732 196.635 128.756 197.676C127.813 198.681 126.87 199.651 125.925 200.586C125.017 201.554 124.123 202.436 123.243 203.23C122.938 203.483 122.544 203.687 122.062 203.842C121.544 203.963 120.946 203.773 120.269 203.273C117.876 201.366 115.373 199.288 112.76 197.04C110.112 194.758 107.442 192.355 104.751 189.831C100.337 185.691 95.9877 181.376 91.7021 176.884C87.4502 172.357 83.62 167.955 80.2115 163.679Z" fill="white"/>
<path d="M121.745 170.041C119.271 167.304 117.339 164.541 115.948 161.754C114.524 158.93 113.689 156.17 113.442 153.476C113.232 150.749 113.663 148.106 114.733 145.548C115.803 142.99 117.561 140.606 120.007 138.397C122.416 136.22 124.893 134.778 127.436 134.071C129.947 133.328 132.475 133.265 135.022 133.882C137.571 134.429 140.124 135.604 142.68 137.405C145.239 139.137 147.788 141.409 150.328 144.22C153.23 147.432 155.353 150.553 156.697 153.581C158.008 156.574 158.664 159.428 158.665 162.145C158.703 164.829 158.158 167.344 157.029 169.69C155.866 171.999 154.282 174.061 152.274 175.875C150.303 177.656 148.164 178.958 145.858 179.781C143.519 180.568 141.035 180.79 138.405 180.448C135.812 180.073 133.112 179.065 130.304 177.424C127.5 175.715 124.647 173.254 121.745 170.041ZM132.736 158.321C135.21 161.059 137.14 162.829 138.527 163.631C139.915 164.433 141.028 164.454 141.868 163.696C142.744 162.904 142.819 161.776 142.092 160.311C141.402 158.813 139.853 156.732 137.445 154.067C135.071 151.439 133.172 149.74 131.748 148.971C130.324 148.203 129.229 148.164 128.462 148.857C127.696 149.549 127.623 150.643 128.244 152.137C128.864 153.632 130.362 155.693 132.736 158.321Z" fill="white"/>
<path d="M143.217 121.844C142.759 120.666 142.972 119.679 143.858 118.885C144.529 118.299 145.376 117.621 146.399 116.852C147.422 116.082 148.499 115.304 149.631 114.519C150.884 113.65 152.09 112.842 153.25 112.097C154.409 111.352 155.381 110.768 156.164 110.344C156.988 109.892 157.653 110.029 158.158 110.757C158.438 111.161 159.179 112.444 160.379 114.605C161.579 116.766 163.217 119.342 165.293 122.332C166.443 123.989 167.605 125.578 168.78 127.098C169.995 128.59 171.219 129.836 172.453 130.837C172.883 131.197 173.259 131.265 173.582 131.041C173.865 130.844 173.897 130.373 173.679 129.626C173.472 128.811 173.093 127.877 172.541 126.823C172.002 125.7 171.366 124.525 170.633 123.297C169.941 122.041 169.25 120.873 168.562 119.794C167.885 118.647 167.252 117.649 166.663 116.8C166.087 115.883 165.686 115.263 165.462 114.939C164.48 113.525 163.59 112.286 162.793 111.223C162.035 110.132 161.46 109.303 161.068 108.737C160.619 108.091 160.676 107.482 161.238 106.912C161.881 106.286 162.674 105.616 163.616 104.903C164.57 104.121 165.573 103.365 166.624 102.636C167.674 101.907 168.699 101.226 169.697 100.593C170.735 99.9319 171.654 99.444 172.453 99.1288C172.792 99.0133 173.099 98.9802 173.373 99.0297C173.659 99.0107 173.914 99.1629 174.139 99.4862C174.503 100.012 174.94 100.727 175.448 101.632C175.996 102.508 176.581 103.48 177.201 104.546C177.862 105.585 178.545 106.698 179.249 107.886C179.994 109.045 180.773 110.211 181.587 111.383C181.783 111.666 182.266 112.319 183.036 113.342C183.778 114.324 184.602 115.339 185.508 116.386C186.387 117.393 187.236 118.271 188.055 119.02C188.886 119.701 189.484 119.915 189.848 119.662C190.131 119.466 190.199 119.089 190.052 118.533C189.917 117.907 189.672 117.209 189.317 116.438C189.002 115.639 188.59 114.787 188.082 113.882C187.573 112.977 187.073 112.127 186.581 111.331C186.128 110.507 185.692 109.792 185.271 109.185C184.891 108.551 184.631 108.133 184.49 107.931C183.677 106.759 182.871 105.641 182.074 104.578C181.276 103.515 180.528 102.567 179.83 101.734C179.145 100.832 178.523 100.066 177.965 99.4351C177.448 98.7761 177.077 98.2849 176.853 97.9616C176.516 97.4766 176.393 97.0832 176.483 96.7813C176.545 96.4389 176.723 96.1354 177.019 95.8706C177.65 95.3129 178.456 94.6633 179.439 93.9216C180.393 93.1396 181.395 92.3839 182.446 91.6546C183.537 90.8973 184.636 90.1944 185.743 89.546C186.822 88.8571 187.794 88.2726 188.658 87.7925C189.793 87.1844 190.889 87.3823 191.944 88.386C192.571 89.0294 193.346 90.0179 194.272 91.3516C197.862 96.5247 200.519 101.388 202.242 105.941C203.964 110.494 205.066 114.67 205.546 118.468C206.039 122.198 206.08 125.493 205.67 128.353C205.231 131.172 204.66 133.455 203.956 135.201C203.813 135.6 203.519 135.953 203.075 136.262C202.671 136.542 202.311 136.672 201.997 136.65C201.014 136.614 199.914 136.539 198.697 136.425C197.521 136.284 196.296 136.115 195.024 135.921C193.723 135.686 192.428 135.417 191.14 135.113C189.892 134.782 188.704 134.408 187.578 133.993C187.151 133.81 186.756 133.844 186.392 134.097C186.029 134.349 185.825 134.79 185.782 135.418C185.74 136.047 185.61 137.155 185.394 138.742C185.219 140.301 184.976 141.936 184.667 143.647C184.37 145.291 184.024 146.819 183.627 148.232C183.202 149.604 182.748 150.459 182.263 150.795C181.98 150.992 181.681 151.079 181.367 151.058C178.349 150.937 175.356 150.379 172.39 149.383C169.424 148.388 166.462 146.881 163.504 144.862C160.517 142.803 157.507 140.191 154.473 137.027C151.451 133.795 148.37 129.916 145.228 125.389C144.723 124.662 144.309 124.021 143.985 123.468C143.673 122.846 143.417 122.305 143.217 121.844Z" fill="white"/>
<path d="M225.452 93.4169C224.909 92.2584 224.266 90.7672 223.521 88.9432C222.8 87.0538 222.078 85.1644 221.357 83.275C220.66 81.3202 220.013 79.5318 219.417 77.9097C218.844 76.2222 218.436 75.0012 218.191 74.2466C217.744 72.8265 218.079 71.8008 219.195 71.1695C220.045 70.6634 220.96 70.1809 221.94 69.7222C222.944 69.198 223.958 68.6962 224.983 68.2166C227.077 67.2366 228.913 66.4589 230.491 65.8836C231.156 65.6808 231.663 65.6609 232.011 65.824C232.338 65.9426 232.616 66.2469 232.845 66.737C233.116 67.3162 233.593 68.451 234.276 70.1413C234.982 71.7662 235.758 73.6571 236.604 75.8138C237.495 77.9497 238.449 80.2193 239.465 82.6225C240.525 85.0049 241.546 87.2431 242.526 89.3373C243.464 91.3424 244.309 92.6848 245.062 93.3646C245.838 93.9789 246.538 94.1402 247.162 93.8482C247.652 93.6189 247.98 93.2753 248.146 92.8174C248.36 92.2287 248.335 91.4798 248.073 90.5707C247.834 89.5961 247.349 88.3291 246.62 86.7696C243.575 80.2643 241.118 75.3037 239.248 71.888C237.378 68.4722 236.252 66.4733 235.871 65.8912C235.449 65.22 235.331 64.6777 235.517 64.2644C235.683 63.8066 236.102 63.3663 236.773 62.9435C238.003 62.2052 239.509 61.4189 241.291 60.5849C242.405 60.0636 243.507 59.575 244.597 59.1191C245.687 58.6632 246.644 58.2699 247.467 57.9391C248.112 57.6917 248.685 57.6406 249.187 57.7857C249.714 57.8654 250.24 58.3522 250.767 59.2462C252.351 61.8182 253.856 64.4542 255.283 67.1542C256.754 69.8333 258.209 72.7101 259.647 75.7846C261.065 78.8144 262.457 82.0197 263.821 85.4003C265.231 88.7601 266.71 92.3858 268.26 96.2774C268.713 97.4776 268.709 98.4569 268.25 99.2152C267.79 99.9736 267.068 100.637 266.085 101.206C265.459 101.608 264.744 101.996 263.942 102.372C263.161 102.792 262.392 103.179 261.634 103.533C261.1 103.783 260.577 104.001 260.066 104.186C259.62 104.394 259.209 104.56 258.831 104.682C258.077 104.926 257.514 105 257.142 104.902C256.75 104.76 256.428 104.421 256.178 103.887C255.761 102.996 255.174 102.727 254.416 103.082C253.882 103.332 253.374 103.814 252.893 104.528C252.436 105.176 251.921 105.933 251.349 106.799C250.755 107.619 250.062 108.46 249.27 109.32C248.477 110.179 247.479 110.891 246.276 111.454C244.405 112.329 242.667 112.735 241.062 112.672C239.457 112.608 237.857 111.917 236.263 110.6C234.647 109.237 232.974 107.169 231.241 104.395C229.508 101.621 227.578 97.9617 225.452 93.4169Z" fill="white"/>
<path d="M271.384 85.9798C271.286 85.7013 271.122 85.1593 270.892 84.3538C270.692 83.4857 270.538 82.6012 270.431 81.7005C270.323 80.7998 270.318 79.9674 270.415 79.2036C270.496 78.3933 270.768 77.9067 271.233 77.7439C271.604 77.6137 271.986 77.6622 272.378 77.8895C273.242 78.4206 274.254 78.9261 275.413 79.4059C276.602 79.8231 277.821 80.1776 279.07 80.4693C280.349 80.6984 281.619 80.8264 282.88 80.8535C284.171 80.8179 285.327 80.621 286.348 80.2628C287.555 79.8395 288.004 79.1869 287.695 78.3049C287.499 77.7478 287.027 77.3662 286.277 77.16C285.51 76.9074 284.34 76.6922 282.766 76.5144C280.927 76.3252 279.103 76.1046 277.294 75.8527C275.469 75.5543 273.781 75.0515 272.23 74.3444C270.679 73.6373 269.263 72.6479 267.983 71.3765C266.733 70.0423 265.717 68.2611 264.936 66.0328C264.122 63.7116 263.823 61.5225 264.04 59.4654C264.241 57.3618 264.896 55.438 266.004 53.6937C267.097 51.9031 268.628 50.3234 270.598 48.9547C272.552 47.5396 274.852 46.3681 277.498 45.4401C278.705 45.0168 279.937 44.6632 281.193 44.3792C282.495 44.0789 283.721 43.8576 284.87 43.7152C286.049 43.5102 287.16 43.4074 288.202 43.4067C289.228 43.3596 290.108 43.416 290.842 43.5757C291.513 43.7053 291.983 43.9314 292.253 44.2539C292.569 44.5602 292.825 44.9919 293.02 45.5489C293.313 46.3845 293.569 47.3374 293.788 48.4076C294.007 49.4777 294.179 50.5641 294.305 51.6668C294.478 52.7533 294.596 53.8328 294.659 54.9053C294.706 55.9315 294.721 56.8648 294.702 57.7052C294.652 58.4528 294.371 58.9161 293.861 59.0952C293.536 59.2092 293.17 59.2071 292.764 59.0889C291.825 58.7923 290.763 58.5132 289.577 58.2516C288.437 57.9737 287.274 57.7818 286.09 57.6757C284.936 57.5069 283.8 57.4624 282.681 57.542C281.592 57.5589 280.63 57.7139 279.794 58.0069C278.448 58.4791 277.93 59.1561 278.239 60.0382C278.418 60.5488 278.851 60.8922 279.538 61.0682C280.272 61.2279 281.496 61.3723 283.209 61.5012C284.86 61.6 286.636 61.7591 288.538 61.9785C290.486 62.1816 292.36 62.6193 294.159 63.2914C296.005 63.9473 297.686 64.9481 299.2 66.2937C300.698 67.5929 301.863 69.4262 302.693 71.7938C303.605 74.3935 304.008 76.8066 303.902 79.0331C303.781 81.2132 303.22 83.1823 302.221 84.9404C301.267 86.6823 299.899 88.2049 298.114 89.5085C296.392 90.8422 294.348 91.9242 291.98 92.7545C289.566 93.601 287.263 94.0958 285.072 94.2388C282.896 94.4282 280.91 94.2646 279.113 93.7479C277.346 93.1686 275.799 92.2514 274.473 90.9962C273.13 89.6946 272.1 88.0225 271.384 85.9798Z" fill="white"/>
<path d="M321.729 57.5177C320.991 53.9028 320.731 50.5415 320.95 47.434C321.158 44.2782 321.842 41.4775 322.999 39.0318C324.204 36.5762 325.918 34.5189 328.14 32.8599C330.362 31.201 333.087 30.0416 336.317 29.3818C339.498 28.7319 342.363 28.749 344.913 29.4332C347.453 30.0691 349.663 31.2997 351.542 33.1251C353.46 34.8924 355.061 37.2013 356.346 40.0517C357.67 42.8442 358.711 46.0961 359.469 49.8074C360.336 54.0489 360.578 57.8155 360.196 61.107C359.804 64.3504 358.919 67.1423 357.539 69.4828C356.208 71.8135 354.459 73.702 352.295 75.1485C350.12 76.5468 347.707 77.5168 345.056 78.0584C342.453 78.5901 339.95 78.6246 337.546 78.1617C335.132 77.6507 332.879 76.5795 330.788 74.9479C328.746 73.3066 326.933 71.0661 325.348 68.2265C323.802 65.3288 322.596 61.7592 321.729 57.5177ZM337.152 53.0111C337.891 56.626 338.654 59.1314 339.441 60.5271C340.228 61.9228 341.176 62.5074 342.285 62.2809C343.442 62.0446 344.079 61.1109 344.198 59.4799C344.365 57.8391 344.089 55.2594 343.37 51.7408C342.661 48.2705 341.889 45.8424 341.053 44.4565C340.218 43.0707 339.294 42.4811 338.282 42.6879C337.27 42.8947 336.651 43.7994 336.426 45.4018C336.201 47.0043 336.443 49.5408 337.152 53.0111Z" fill="white"/>
<path d="M365.718 28.8655C365.693 27.5829 366.024 26.6613 366.711 26.1008C367.398 25.5403 368.3 25.1567 369.417 24.9502C370.24 24.7719 371.141 24.6356 372.121 24.5411C373.144 24.3929 374.146 24.2716 375.125 24.1771C375.958 24.0968 376.719 24.0481 377.409 24.0309C378.144 23.9601 378.783 23.9232 379.326 23.9202C380.119 23.9425 380.677 24.0864 380.999 24.3519C381.321 24.6174 381.508 25.0194 381.56 25.5581C381.654 26.5374 382.118 26.9869 382.95 26.9066C383.587 26.8452 384.202 26.5635 384.796 26.0613C385.39 25.5592 386.055 25.0255 386.792 24.4603C387.523 23.8461 388.36 23.2958 389.301 22.8096C390.287 22.2697 391.49 21.9313 392.91 21.7943C394.624 21.629 396.126 21.83 397.416 22.3975C398.702 22.916 399.807 23.8719 400.733 25.2654C401.707 26.6541 402.479 28.5072 403.048 30.8245C403.667 33.1372 404.136 35.9584 404.458 39.2882C404.741 42.2262 404.949 45.1469 405.08 48.0501C405.256 50.8997 405.365 53.5581 405.405 56.0254C405.494 58.4879 405.528 60.6346 405.507 62.4652C405.53 64.2422 405.533 65.5517 405.515 66.3936C405.457 67.8325 404.798 68.6869 403.539 68.9566C402.765 69.1301 401.839 69.2688 400.762 69.3727C399.733 69.4719 398.656 69.5759 397.53 69.6845C396.404 69.7931 395.277 69.9018 394.151 70.0104C393.074 70.1144 392.041 70.1646 391.052 70.1611C390.362 70.1783 389.882 70.0763 389.614 69.855C389.341 69.5849 389.183 69.2294 389.14 68.7887C389.041 67.7604 388.944 66.2377 388.848 64.2206C388.747 62.1545 388.633 59.9415 388.504 57.5816C388.371 55.1727 388.237 52.7639 388.103 50.355C387.97 47.9462 387.816 45.8359 387.641 44.0241C387.428 41.8205 387.059 40.2993 386.534 39.4604C386.052 38.5678 385.469 38.1546 384.783 38.2207C384.146 38.2821 383.673 38.5007 383.364 38.8766C382.965 39.3598 382.74 40.0982 382.688 41.0917C382.679 42.0315 382.758 43.3584 382.923 45.0722C383.528 51.3401 384.202 56.5386 384.947 60.6677C385.686 64.7479 386.117 67.4246 386.24 68.6978C386.358 69.922 385.734 70.6247 384.368 70.8059C383.491 70.9399 382.588 71.0518 381.657 71.1415C380.732 71.2802 379.804 71.3945 378.873 71.4842C377.649 71.6023 376.471 71.6912 375.34 71.7509C374.263 71.8548 373.306 71.9224 372.469 71.9537C371.779 71.9709 371.199 71.8538 370.73 71.6026C370.305 71.2976 369.994 70.6356 369.797 69.6168C369.269 66.7023 368.759 63.4649 368.267 59.9044C367.77 56.295 367.317 52.3602 366.906 48.1001C366.622 45.162 366.376 42.0968 366.167 38.9045C365.953 35.6632 365.803 32.3169 365.718 28.8655Z" fill="white"/>
<path d="M432.921 43.3813C433.228 43.1515 433.554 43.0459 433.898 43.0644C434.34 43.0882 434.697 43.329 434.968 43.787C435.871 45.3136 436.906 46.6748 438.074 47.8707C439.29 49.0693 440.54 50.0972 441.824 50.9545C443.158 51.8145 444.5 52.5025 445.852 53.0186C447.206 53.4856 448.473 53.7508 449.652 53.8142C451.96 53.9384 453.152 53.3128 453.226 51.9373C453.266 51.2005 452.858 50.5381 452.003 49.9502C451.197 49.3649 449.587 48.6132 447.173 47.6951C444.953 46.8367 442.862 45.8621 440.901 44.7712C438.942 43.6313 437.215 42.3067 435.72 40.7976C434.276 39.242 433.141 37.4566 432.313 35.4414C431.535 33.4289 431.215 31.1209 431.355 28.5173C431.49 26.012 432.058 23.7024 433.058 21.5885C434.111 19.4281 435.539 17.6082 437.342 16.1288C439.198 14.6028 441.428 13.4419 444.033 12.6459C446.687 11.8526 449.684 11.5458 453.024 11.7255C456.954 11.9369 460.44 12.6171 463.482 13.766C466.573 14.9176 469.178 16.4125 471.296 18.2508C471.908 18.7764 472.194 19.4076 472.155 20.1445C472.12 20.7831 471.902 21.6335 471.5 22.6957C471.101 23.7088 470.575 24.789 469.922 25.9362C469.32 27.037 468.646 28.1338 467.897 29.2267C467.198 30.3222 466.482 31.269 465.749 32.0671C465.436 32.3951 465.083 32.5485 464.69 32.5274C464.297 32.5063 463.935 32.3636 463.604 32.0995C461.437 30.2586 459.423 28.7709 457.563 27.6362C455.703 26.5016 453.986 25.8919 452.414 25.8074C451.53 25.7598 450.881 25.922 450.467 26.2938C450.105 26.6192 449.909 27.052 449.88 27.5924C449.83 28.5258 450.204 29.3588 451.002 30.0914C451.852 30.7776 453.265 31.5187 455.242 32.3148C458.328 33.5646 460.942 34.8876 463.084 36.2837C465.228 37.6308 466.946 39.1272 468.237 40.7732C469.579 42.3727 470.518 44.1475 471.054 46.0977C471.59 48.0478 471.79 50.2756 471.655 52.7809C471.52 55.2862 470.95 57.6449 469.944 59.8571C468.99 62.0227 467.558 63.9163 465.648 65.5379C463.741 67.1103 461.384 68.3383 458.577 69.2219C455.823 70.0591 452.554 70.3759 448.772 70.1724C445.677 70.006 442.871 69.5102 440.353 68.685C437.836 67.8599 435.705 66.7107 433.962 65.2375C432.267 63.7669 430.957 62.0213 430.031 60.0009C429.157 57.934 428.791 55.5742 428.934 52.9215C429.066 50.4653 429.494 48.4684 430.217 46.9308C430.992 45.3467 431.893 44.1635 432.921 43.3813Z" fill="white"/>
<path d="M479.443 47.4884C480.043 43.8479 481 40.6152 482.313 37.7902C483.634 34.9167 485.272 32.5441 487.225 30.6724C489.228 28.8086 491.563 27.4982 494.23 26.7413C496.898 25.9843 499.858 25.8738 503.11 26.4098C506.314 26.9378 508.984 27.9763 511.122 29.5253C513.268 31.0257 514.893 32.9638 515.997 35.3395C517.158 37.6747 517.83 40.4031 518.014 43.5246C518.254 46.6055 518.066 50.0148 517.45 53.7523C516.746 58.0238 515.628 61.6289 514.097 64.5674C512.574 67.4575 510.75 69.7495 508.626 71.4437C506.551 73.1458 504.244 74.2863 501.705 74.8651C499.175 75.3954 496.575 75.4405 493.905 75.0005C491.284 74.5685 488.933 73.7074 486.852 72.4171C484.779 71.0783 483.057 69.2739 481.686 67.0037C480.364 64.7416 479.469 62.0015 479.003 58.7835C478.592 55.5249 478.739 51.7599 479.443 47.4884ZM495.459 48.7818C494.859 52.4223 494.678 55.0349 494.915 56.6196C495.152 58.2044 495.829 59.0887 496.946 59.2727C498.111 59.4647 499.04 58.8201 499.733 57.3388C500.474 55.8655 501.137 53.3572 501.721 49.8138C502.297 46.3189 502.442 43.7751 502.156 42.1823C501.87 40.5896 501.217 39.7092 500.198 39.5412C499.178 39.3732 498.278 39.9976 497.496 41.4144C496.714 42.8311 496.035 45.2869 495.459 48.7818Z" fill="white"/>
<path d="M522.845 57.5344C524.029 53.115 525.558 49.3994 527.434 46.3877C529.31 43.376 531.414 41.0363 533.745 39.3687C536.136 37.6663 538.659 36.6105 541.315 36.2012C544.031 35.7572 546.791 35.9106 549.595 36.6613C551.829 37.2594 553.658 38.1311 555.083 39.2766C556.568 40.3872 557.674 41.6765 558.401 43.1445C559.189 44.5776 559.628 46.1721 559.718 47.9277C559.868 49.6486 559.695 51.4357 559.199 53.289C558.804 54.7621 558.085 56.0211 557.042 57.0657C556.058 58.0756 554.899 58.8856 553.564 59.4959C552.29 60.0713 550.941 60.4486 549.518 60.6278C548.108 60.7594 546.785 60.6598 545.549 60.329C544.551 60.0617 544.124 59.5654 544.268 58.8398C544.44 57.8165 544.623 56.847 544.817 55.9313C545.024 54.9682 545.176 54.1175 545.271 53.3792C545.367 52.641 545.354 52.0262 545.23 51.5349C545.12 50.9961 544.827 50.663 544.352 50.5358C543.592 50.3322 542.801 50.9097 541.978 52.2683C541.169 53.5794 540.395 55.6131 539.657 58.3693C539.008 60.7928 538.765 62.8413 538.928 64.5146C539.139 66.2007 540.123 67.2792 541.882 67.75C542.88 68.0172 543.851 68.099 544.795 67.9954C545.8 67.857 546.735 67.5981 547.601 67.2187C548.466 66.8393 549.249 66.387 549.95 65.8617C550.664 65.2888 551.282 64.6905 551.806 64.0668C552.098 63.7375 552.457 63.6302 552.885 63.7447C552.98 63.7701 553.093 63.8257 553.222 63.9114C553.352 63.9971 553.504 64.1906 553.678 64.4918C554.165 65.3352 554.492 66.4922 554.658 67.9628C554.885 69.3985 554.744 71.0668 554.235 72.9676C553.688 75.011 552.84 76.8465 551.691 78.4742C550.542 80.1018 549.118 81.4265 547.418 82.4483C545.719 83.4702 543.739 84.1114 541.48 84.3721C539.22 84.6328 536.688 84.3878 533.884 83.637C530.938 82.8481 528.542 81.6208 526.696 79.9553C524.863 78.2422 523.519 76.2269 522.662 73.9096C521.853 71.6049 521.466 69.0567 521.501 66.2649C521.583 63.4859 522.031 60.5757 522.845 57.5344Z" fill="white"/>
<path d="M572.48 46.8146C572.881 46.1215 573.3 45.7477 573.737 45.6932C574.19 45.5923 574.657 45.6006 575.137 45.718C577.273 46.3158 579.177 46.9096 580.847 47.4992C582.609 48.1216 584.464 48.8545 586.409 49.698C587.583 50.2166 588.005 50.9398 587.678 51.8675C587.53 52.285 587.278 52.9263 586.92 53.7913C586.579 54.6099 586.189 55.5677 585.749 56.6646C585.373 57.7315 584.948 58.8599 584.476 60.0496C584.004 61.2393 583.571 62.3908 583.178 63.5041C581.769 67.4935 580.591 71.1991 579.644 74.621C578.697 78.0428 577.912 81.0786 577.289 83.7282C576.713 86.3942 576.238 88.6263 575.864 90.4246C575.49 92.2228 575.18 93.4699 574.934 94.1657C574.771 94.6296 574.517 94.9052 574.173 94.9924C573.829 95.0797 573.464 95.081 573.076 94.9964C571.976 94.7125 570.8 94.3494 569.548 93.9072C568.279 93.5113 566.972 93.0759 565.627 92.6009C564.281 92.126 562.991 91.6442 561.755 91.1555C560.502 90.7133 559.336 90.2493 558.255 89.7634C557.9 89.586 557.555 89.3076 557.219 88.9283C556.9 88.5025 556.833 87.879 557.019 87.0576C557.513 84.6236 558.158 82.0599 558.952 79.3666C559.793 76.6897 560.713 73.9365 561.712 71.1068C563.252 66.7463 564.945 62.4663 566.793 58.2669C568.658 54.021 570.553 50.2036 572.48 46.8146ZM586.456 32.4981C589.796 33.6774 591.972 35.1239 592.985 36.8378C593.997 38.5516 594.11 40.5218 593.324 42.7485C592.554 44.9287 591.245 46.3448 589.398 46.9968C587.566 47.6024 584.981 47.3155 581.641 46.1363C578.44 45.0061 576.271 43.6142 575.133 41.9603C574.058 40.2765 573.906 38.3445 574.675 36.1642C575.462 33.9376 576.81 32.4833 578.72 31.8013C580.677 31.1357 583.256 31.368 586.456 32.4981Z" fill="white"/>
<path d="M584.442 83.2102C585.589 80.6515 587.014 78.6755 588.717 77.2824C590.419 75.8893 592.251 74.9311 594.21 74.408C596.235 73.86 598.309 73.6844 600.431 73.881C602.573 74.0328 604.647 74.3966 606.654 74.9724C607.856 75.296 608.812 75.5089 609.521 75.611C610.25 75.6683 610.746 75.4052 611.007 74.8216C611.168 74.4625 611.13 74.0678 610.891 73.6374C610.673 73.1622 610.003 72.673 608.88 72.1699C607.13 71.3851 605.138 70.8966 602.906 70.7047C600.739 70.4879 598.453 70.8377 596.047 71.754C595.462 71.9769 594.967 71.9978 594.563 71.8167C594.204 71.6557 593.95 71.3802 593.802 70.9901C593.381 69.8848 593.125 68.5304 593.036 66.9267C592.946 65.323 593.314 63.6009 594.139 61.7604C595.346 59.067 597.814 57.5315 601.541 57.1538C605.313 56.7963 609.915 57.8351 615.347 60.2701C618.4 61.6386 620.797 63.1448 622.54 64.7888C624.328 66.4529 625.561 68.2725 626.239 70.2477C626.937 72.178 627.125 74.284 626.803 76.5657C626.501 78.8025 625.777 81.2003 624.63 83.759C624.348 84.3875 623.923 85.2752 623.355 86.4222C622.852 87.5445 622.256 88.8138 621.567 90.2302C620.898 91.6016 620.199 93.0405 619.47 94.5466C618.786 96.0729 618.122 97.5543 617.478 98.9907C617.015 100.023 616.565 101.088 616.127 102.186C615.709 103.238 615.321 104.224 614.963 105.141C614.65 106.08 614.356 106.918 614.078 107.656C613.821 108.35 613.612 108.876 613.451 109.235C612.908 110.447 612.003 110.904 610.735 110.605C610.111 110.433 609.173 110.12 607.921 109.667C606.688 109.168 605.322 108.609 603.82 107.99C602.364 107.391 600.827 106.729 599.211 106.005C597.62 105.345 596.151 104.714 594.804 104.11C589.552 101.756 585.952 98.9019 584.005 95.549C582.123 92.1713 582.268 88.0584 584.442 83.2102ZM601.257 91.8807C601.975 92.2026 602.57 92.1996 603.04 91.8714C603.531 91.4984 604.008 90.7956 604.471 89.7631L605.165 88.2144C605.668 87.0921 605.91 86.3112 605.892 85.8716C605.918 85.4521 605.662 85.1216 605.123 84.8801C604.225 84.4776 603.201 84.4768 602.051 84.8777C600.966 85.2539 600.162 86.0255 599.639 87.1926C599.176 88.2251 599.128 89.174 599.495 90.0393C599.862 90.9046 600.449 91.5184 601.257 91.8807Z" fill="white"/>
<path d="M648.097 64.9693C648.563 64.3273 649.015 64.0151 649.455 64.0326C649.962 64.0308 650.442 64.127 650.897 64.3212C652.907 65.26 654.882 66.2634 656.821 67.3315C658.846 68.447 660.75 69.5797 662.531 70.7296C663.604 71.4329 663.915 72.1939 663.464 73.0126C663.322 73.2711 662.747 74.162 661.739 75.6851C660.756 77.1652 659.549 78.9996 658.118 81.1885C656.755 83.358 655.273 85.7429 653.672 88.3434C652.071 90.9438 650.57 93.5151 649.17 96.0575C647.556 98.9876 646.028 101.965 644.587 104.99C643.145 108.015 641.834 110.804 640.654 113.355C639.516 115.929 638.537 118.114 637.717 119.909C636.94 121.728 636.421 122.874 636.16 123.348C635.923 123.779 635.615 124.031 635.238 124.104C634.861 124.177 634.488 124.14 634.12 123.993C633.081 123.534 631.98 122.983 630.817 122.342C629.63 121.745 628.411 121.102 627.162 120.413C625.955 119.749 624.782 119.075 623.642 118.391C622.479 117.75 621.404 117.101 620.417 116.446C620.096 116.213 619.801 115.882 619.532 115.453C619.286 114.98 619.322 114.354 619.64 113.574C620.896 110.784 622.29 107.845 623.822 104.758C625.378 101.627 627.046 98.4458 628.826 95.214C631.745 89.9139 634.851 84.6322 638.143 79.3689C641.479 74.1294 644.796 69.3295 648.097 64.9693Z" fill="white"/>
<path d="M689.244 93.0714C689.711 92.6244 690.122 92.4129 690.476 92.4368C690.899 92.4517 691.247 92.5641 691.52 92.774C692.399 93.3258 693.521 94.1264 694.886 95.1759C696.281 96.1865 697.719 97.2615 699.201 98.401C700.371 99.3006 701.487 100.19 702.549 101.068C703.611 101.947 704.517 102.706 705.267 103.344C705.822 103.833 706.22 104.325 706.46 104.82C706.7 105.315 706.762 105.921 706.645 106.637C706.507 107.462 706.269 108.458 705.93 109.625C705.66 110.783 705.316 112.038 704.896 113.391C704.506 114.705 704.052 116.062 703.533 117.463C703.084 118.855 702.61 120.197 702.113 121.49C701.9 122.009 701.949 122.389 702.261 122.628C702.534 122.838 702.864 122.813 703.251 122.552C705.77 120.89 708.215 119.325 710.584 117.858C712.953 116.39 714.845 115.301 716.261 114.59C716.786 114.311 717.348 114.185 717.948 114.212C718.578 114.2 719.123 114.339 719.582 114.63C720.616 115.302 721.675 116.023 722.758 116.793C723.871 117.525 724.993 118.326 726.124 119.195C727.177 120.005 728.215 120.834 729.238 121.683C730.261 122.531 731.235 123.404 732.159 124.301C733.2 125.287 733.503 126.265 733.068 127.234C731.128 131.452 728.938 135.632 726.497 139.775C724.096 143.947 721.365 148.023 718.307 152C715.998 155.003 713.492 157.979 710.79 160.928C708.158 163.868 705.337 166.85 702.329 169.874C701.891 170.282 701.446 170.499 700.993 170.523C700.579 170.577 700.182 170.488 699.801 170.257C698.844 169.646 697.512 168.715 695.805 167.464C694.107 166.283 692.381 165.017 690.626 163.668C689.261 162.618 688.008 161.624 686.868 160.686C685.728 159.747 684.794 158.904 684.065 158.158C683.492 157.531 683.415 156.945 683.835 156.399C684.315 155.775 685.165 155.032 686.385 154.171C687.606 153.31 689.011 152.249 690.601 150.989C692.229 149.759 693.949 148.289 695.76 146.579C697.611 144.899 699.39 142.947 701.1 140.724C702.779 138.541 704.158 136.343 705.238 134.132C705.408 133.829 705.357 133.573 705.084 133.363C704.85 133.183 704.589 133.2 704.302 133.413C701.659 135.477 698.753 137.4 695.583 139.182C692.413 140.965 689.377 142.694 686.473 144.372C685.691 144.825 684.987 144.811 684.363 144.332C683.778 143.882 683.585 143.206 683.783 142.303C684.196 140.635 684.67 138.889 685.203 137.065C685.776 135.272 686.353 133.512 686.934 131.787C687.546 130.024 688.117 128.353 688.648 126.775C689.217 125.227 689.706 123.865 690.113 122.689C690.266 122.248 690.206 121.923 689.933 121.713C689.699 121.533 689.438 121.55 689.15 121.763C687.819 122.849 686.654 124.001 685.655 125.219C684.657 126.437 683.723 127.611 682.853 128.742C681.384 130.653 680.105 132.68 679.016 134.821C677.928 136.963 676.979 138.964 676.17 140.824C675.429 142.675 674.78 144.286 674.222 145.657C673.734 147.018 673.34 147.894 673.04 148.284C672.65 148.791 672.054 148.799 671.254 148.307C670.297 147.695 669.233 146.94 668.063 146.04C666.863 145.18 665.6 144.239 664.274 143.22C662.987 142.23 661.696 141.206 660.4 140.148C659.113 139.158 657.914 138.175 656.804 137.197C656.18 136.717 656.065 136.101 656.458 135.348C658.122 131.973 660.032 128.601 662.187 125.233C664.412 121.855 666.844 118.45 669.483 115.018C672.302 111.352 675.352 107.709 678.632 104.088C681.943 100.428 685.48 96.7555 689.244 93.0714Z" fill="white"/>
<path d="M755.469 157.625C756.927 159.089 758.073 160.621 758.905 162.223C759.737 163.824 760.222 165.46 760.358 167.13C760.495 168.8 760.231 170.452 759.567 172.086C758.939 173.754 757.858 175.353 756.325 176.881C754.13 179.069 751.988 180.509 749.9 181.201C747.811 181.894 745.811 182.117 743.898 181.87C742.02 181.658 740.212 181.134 738.474 180.296C736.771 179.423 735.189 178.569 733.73 177.731C732.444 176.999 731.453 176.528 730.758 176.318C730.132 176.108 729.61 176.212 729.192 176.628C728.809 177.01 728.669 177.497 728.772 178.089C728.945 178.68 729.466 179.412 730.334 180.283C732.036 181.99 734.034 183.437 736.328 184.623C738.656 185.775 740.812 186.439 742.794 186.617C743.49 186.687 743.959 186.845 744.203 187.088C744.585 187.472 744.531 188.15 744.043 189.123C743.589 190.131 742.7 191.295 741.376 192.615C739.704 194.282 737.875 195.409 735.892 195.998C733.943 196.621 731.942 196.809 729.89 196.562C727.908 196.315 725.943 195.668 723.997 194.622C722.016 193.61 720.209 192.285 718.577 190.647C716.076 188.139 714.411 185.597 713.58 183.021C712.819 180.446 712.667 177.889 713.123 175.35C713.614 172.846 714.592 170.413 716.057 168.05C717.591 165.687 719.404 163.463 721.494 161.38C724.909 157.976 728.217 155.477 731.42 153.882C734.658 152.322 737.703 151.474 740.556 151.34C743.478 151.205 746.173 151.714 748.641 152.866C751.179 154.018 753.454 155.605 755.469 157.625ZM737.19 167.301C737.538 167.65 738.076 167.946 738.807 168.191C739.328 168.366 739.867 168.523 740.423 168.663C741.014 168.838 741.588 168.961 742.145 169.031C742.736 169.067 743.275 169.016 743.762 168.877C744.284 168.774 744.737 168.531 745.12 168.149C745.573 167.697 745.818 167.176 745.853 166.585C745.924 165.959 745.664 165.35 745.074 164.757C744.24 163.921 743.04 163.623 741.475 163.864C739.978 164.105 738.655 164.799 737.506 165.945C736.948 166.501 736.843 166.953 737.19 167.301Z" fill="white"/>
<path d="M780.498 185.28C781.581 186.619 782.18 188.065 782.295 189.616C782.442 191.206 782.437 192.569 782.282 193.707C782.252 193.984 782.315 194.218 782.47 194.409C782.81 194.83 783.229 194.839 783.726 194.437C784.338 193.943 785.118 193.186 786.065 192.167C787.013 191.148 787.929 190.09 788.815 188.995C789.77 187.907 790.625 186.93 791.382 186.066C792.176 185.171 792.707 184.615 792.975 184.398C793.396 184.058 793.826 183.964 794.264 184.115C794.741 184.236 795.184 184.51 795.594 184.938C796.158 185.558 796.703 186.193 797.229 186.843C797.793 187.463 798.353 188.117 798.91 188.805C799.745 189.838 800.576 190.906 801.404 192.008C802.231 193.11 803.009 194.189 803.737 195.246C804.124 195.882 804.342 196.464 804.391 196.994C804.44 197.524 804.071 198.202 803.283 199.028C802.221 200.14 800.853 201.499 799.178 203.106C797.504 204.712 795.623 206.455 793.535 208.332C791.447 210.21 789.213 212.142 786.834 214.129C784.486 216.153 782.106 218.14 779.696 220.089C776.482 222.686 773.36 225.084 770.329 227.281C767.336 229.448 764.679 231.248 762.358 232.681C761.271 233.37 760.034 233.327 758.647 232.55C757.46 231.865 755.89 230.666 753.938 228.955C752.054 227.252 749.69 224.64 746.845 221.12C744.68 218.442 743.111 215.915 742.139 213.538C741.205 211.13 740.912 208.773 741.262 206.466C741.611 204.16 742.625 201.853 744.303 199.548C746.02 197.211 748.428 194.79 751.527 192.285C754.779 189.656 757.872 187.535 760.806 185.922C763.81 184.317 766.566 183.227 769.076 182.653C771.623 182.049 773.87 181.972 775.816 182.423C777.763 182.874 779.323 183.826 780.498 185.28ZM756.535 213.856C756.782 214.163 757.132 214.322 757.586 214.335C758.07 214.386 758.776 214.164 759.703 213.667C760.661 213.209 761.879 212.446 763.356 211.379C764.903 210.318 766.843 208.845 769.176 206.958C771.969 204.7 773.739 203.016 774.487 201.906C775.272 200.765 775.371 199.831 774.784 199.104C774.536 198.798 774.186 198.639 773.732 198.626C773.317 198.582 772.688 198.742 771.845 199.108C771.071 199.48 770.044 200.089 768.766 200.933C767.518 201.815 765.956 203.014 764.082 204.529C762.284 205.983 760.823 207.227 759.698 208.262C758.613 209.267 757.787 210.124 757.222 210.834C756.688 211.581 756.361 212.194 756.24 212.671C756.189 213.155 756.287 213.55 756.535 213.856Z" fill="white"/>
<path d="M801.901 218.228C802.636 217.91 803.195 217.859 803.578 218.076C804.002 218.264 804.372 218.549 804.688 218.929C806.049 220.681 807.224 222.292 808.215 223.76C809.261 225.31 810.314 227.002 811.375 228.838C812.008 229.954 811.918 230.787 811.102 231.337C810.735 231.585 810.15 231.949 809.348 232.431C808.586 232.886 807.702 233.423 806.696 234.043C805.758 234.675 804.745 235.329 803.658 236.004C802.57 236.678 801.537 237.346 800.558 238.006C797.051 240.373 793.898 242.648 791.099 244.833C788.301 247.018 785.863 248.99 783.785 250.748C781.734 252.547 780.024 254.057 778.652 255.279C777.281 256.501 776.29 257.319 775.678 257.731C775.27 258.006 774.902 258.077 774.574 257.942C774.246 257.807 773.951 257.591 773.69 257.292C772.976 256.409 772.247 255.417 771.504 254.316C770.72 253.243 769.93 252.114 769.132 250.932C768.334 249.749 767.584 248.594 766.882 247.465C766.139 246.364 765.478 245.297 764.899 244.263C764.72 243.909 764.608 243.48 764.564 242.975C764.561 242.443 764.879 241.902 765.517 241.353C767.364 239.692 769.408 238.016 771.65 236.325C773.919 234.675 776.298 233.011 778.785 231.333C782.619 228.746 786.528 226.316 790.513 224.043C794.539 221.742 798.335 219.803 801.901 218.228ZM821.654 215.048C823.635 217.984 824.522 220.442 824.315 222.422C824.107 224.401 823.025 226.052 821.068 227.372C819.151 228.666 817.256 229.024 815.384 228.448C813.552 227.844 811.646 226.074 809.665 223.138C807.766 220.324 806.852 217.914 806.923 215.908C807.062 213.915 808.09 212.272 810.006 210.979C811.964 209.658 813.913 209.292 815.854 209.882C817.822 210.512 819.755 212.234 821.654 215.048Z" fill="white"/>
<path d="M789.839 254.592C792.284 253.219 794.606 252.48 796.803 252.375C799.001 252.27 801.042 252.59 802.928 253.337C804.881 254.102 806.652 255.196 808.24 256.617C809.871 258.015 811.32 259.542 812.589 261.199C813.363 262.176 814.004 262.916 814.513 263.42C815.064 263.9 815.619 263.984 816.177 263.671C816.52 263.478 816.724 263.138 816.789 262.65C816.896 262.138 816.649 261.346 816.047 260.274C815.108 258.601 813.799 257.023 812.12 255.539C810.508 254.075 808.462 252.994 805.984 252.298C805.381 252.129 804.972 251.851 804.755 251.465C804.562 251.122 804.522 250.749 804.635 250.347C804.955 249.209 805.556 247.969 806.439 246.627C807.322 245.285 808.643 244.12 810.402 243.133C812.976 241.688 815.872 241.924 819.092 243.84C822.335 245.799 825.414 249.374 828.328 254.564C829.966 257.481 830.995 260.119 831.416 262.478C831.862 264.879 831.769 267.075 831.137 269.066C830.549 271.032 829.446 272.836 827.829 274.477C826.254 276.095 824.244 277.59 821.799 278.962C821.199 279.3 820.329 279.76 819.189 280.343C818.117 280.945 816.882 281.61 815.486 282.338C814.132 283.041 812.713 283.781 811.231 284.557C809.772 285.376 808.357 286.17 806.984 286.941C805.997 287.495 805.001 288.082 803.996 288.703C803.033 289.3 802.135 289.861 801.301 290.385C800.491 290.953 799.755 291.45 799.093 291.879C798.474 292.283 797.992 292.581 797.649 292.774C796.491 293.424 795.492 293.252 794.651 292.257C794.252 291.747 793.685 290.937 792.949 289.827C792.256 288.693 791.49 287.43 790.653 286.039C789.839 284.69 788.999 283.244 788.132 281.699C787.246 280.222 786.442 278.84 785.72 277.553C782.902 272.534 781.709 268.098 782.141 264.245C782.64 260.41 785.206 257.193 789.839 254.592ZM798.186 271.57C798.571 272.257 799.05 272.608 799.624 272.625C800.24 272.617 801.042 272.336 802.028 271.782L803.508 270.952C804.581 270.35 805.24 269.866 805.487 269.502C805.758 269.181 805.749 268.763 805.46 268.248C804.979 267.39 804.156 266.78 802.994 266.417C801.898 266.073 800.792 266.214 799.677 266.84C798.69 267.394 798.087 268.128 797.866 269.041C797.646 269.955 797.752 270.798 798.186 271.57Z" fill="white"/>
</svg>
