<svg width="537" height="326" viewBox="0 0 537 326" fill="none" xmlns="http://www.w3.org/2000/svg">
<path d="M41.3374 19.1254C40.9991 21.0986 40.3475 22.7502 39.3828 24.0803C38.4144 25.4321 37.2305 26.479 35.8309 27.2212C34.4276 27.985 32.8502 28.4622 31.0988 28.653C29.3474 28.8437 27.5176 28.7754 25.6094 28.4482C23.7447 28.1284 22.0184 27.5869 20.4305 26.8235C18.8427 26.0602 17.5036 25.0828 16.4133 23.8914C15.341 22.7253 14.5626 21.3419 14.0782 19.741C13.5901 18.1618 13.5152 16.3855 13.8536 14.4123C14.1883 12.4608 14.8506 10.8111 15.8407 9.463C16.8271 8.13663 18.0219 7.09154 19.4252 6.32773C20.8464 5.58932 22.4328 5.12475 24.1842 4.93403C25.9357 4.74331 27.7438 4.80784 29.6085 5.12762C31.5167 5.45483 33.2647 6.00012 34.8525 6.76347C36.4403 7.52682 37.7704 8.49151 38.8428 9.65753C39.9114 10.8452 40.6789 12.2268 41.1453 13.8023C41.6081 15.3995 41.6721 17.1739 41.3374 19.1254ZM16.5857 14.8809C16.3143 16.4638 16.36 17.889 16.723 19.1566C17.086 20.4242 17.6993 21.5338 18.5629 22.4854C19.4481 23.4408 20.5512 24.2326 21.872 24.8609C23.2145 25.4929 24.7205 25.9521 26.3902 26.2384C28.0381 26.521 29.5894 26.5861 31.0441 26.4338C32.4988 26.2815 33.7918 25.9005 34.9231 25.2909C36.0544 24.6814 36.9915 23.8376 37.7343 22.7597C38.4989 21.6855 39.0169 20.3569 39.2883 18.774C39.5598 17.1911 39.4923 15.7621 39.086 14.4871C38.7013 13.2158 38.0555 12.1006 37.1486 11.1415C36.2633 10.1862 35.1711 9.3962 33.872 8.77164C32.5691 8.16876 31.1479 7.73532 29.6084 7.47131C27.9388 7.185 26.3677 7.10531 24.895 7.23223C23.4403 7.38456 22.1365 7.76364 20.9835 8.36949C19.8522 8.97905 18.9043 9.82094 18.1397 10.8952C17.3752 11.9694 16.8572 13.298 16.5857 14.8809ZM37.2383 18.6233C37.045 19.7509 36.7224 20.6554 36.2708 21.3368C35.8154 22.04 35.3011 22.5656 34.728 22.9138C34.1512 23.2836 33.5335 23.5013 32.875 23.567C32.2127 23.6543 31.5671 23.644 30.9383 23.5362C30.5263 23.4656 30.1329 23.2865 29.7581 22.999C29.3833 22.7115 29.0649 22.3556 28.8029 21.9312C28.5371 21.5285 28.3494 21.061 28.2398 20.5288C28.1264 20.0183 28.1144 19.5029 28.2036 18.9825C28.2594 18.6572 28.4446 18.4881 28.7594 18.4751C29.1968 18.5278 29.6233 18.5786 30.039 18.6276C30.4764 18.6803 30.8652 18.6911 31.2053 18.6602C31.5634 18.6546 31.8657 18.5837 32.1123 18.4474C32.3589 18.3111 32.5082 18.0912 32.5602 17.7876C32.6644 17.1805 32.3648 16.6492 31.6617 16.1938C30.9802 15.7422 29.9456 15.3973 28.5579 15.1594C27.9724 15.059 27.4248 14.9985 26.9149 14.9781C26.4013 14.9793 25.9453 15.035 25.547 15.1453C25.1486 15.2555 24.815 15.4438 24.5461 15.7102C24.2772 15.9766 24.1037 16.3375 24.0256 16.7928C23.862 17.7469 23.9992 18.574 24.4371 19.2741C24.8714 19.9959 25.3766 20.6294 25.9527 21.1746C26.1113 21.2911 26.1739 21.4469 26.1404 21.642C26.1144 21.7938 26.0125 21.9326 25.8347 22.0584C25.6569 22.1841 25.4286 22.2789 25.1498 22.3427C24.8672 22.4282 24.5578 22.4755 24.2214 22.4848C23.8813 22.5158 23.5377 22.5015 23.1908 22.442C22.5186 22.3267 21.8669 22.0922 21.2356 21.7384C20.6223 21.41 20.0982 20.9519 19.6633 20.3639C19.2284 19.7759 18.9153 19.0638 18.7239 18.2274C18.5504 17.4164 18.5585 16.458 18.7482 15.3521C18.9713 14.0511 19.3905 12.9735 20.0057 12.1192C20.6172 11.2865 21.3635 10.6444 22.2445 10.1928C23.1435 9.76665 24.1484 9.50371 25.2592 9.40403C26.3663 9.32603 27.527 9.39114 28.7413 9.59937C30.1507 9.84106 31.4257 10.2159 32.5662 10.724C33.7067 11.2321 34.6586 11.8641 35.4218 12.62C36.1814 13.3975 36.7215 14.2825 37.0424 15.2751C37.385 16.2713 37.4503 17.3874 37.2383 18.6233Z" fill="white"/>
<path d="M32.7513 33.7944C33.0367 33.8127 33.3048 33.9291 33.5556 34.1436C34.0147 34.5478 34.4455 35.0493 34.848 35.6483C35.2711 36.2706 35.6337 36.9772 35.9357 37.7682C36.2364 38.5811 36.4559 39.4549 36.5944 40.3897C36.7549 41.3258 36.8028 42.2989 36.7381 43.3088C36.6664 44.4285 36.4466 45.4506 36.0787 46.3749C35.7314 47.3227 35.2395 48.1178 34.6032 48.7605C33.9668 49.4031 33.1865 49.8822 32.2625 50.1977C31.3589 50.5367 30.3144 50.6682 29.1288 50.5922C28.1409 50.5289 27.2594 50.3512 26.4845 50.059C25.7316 49.7683 25.0317 49.3377 24.3848 48.7671C23.7585 48.22 23.1647 47.5095 22.6034 46.6359C22.0407 45.7841 21.4564 44.7547 20.8503 43.5475C20.2797 42.4748 19.7472 41.6691 19.2526 41.1304C18.7786 40.615 18.2232 40.3369 17.5865 40.2961C17.1913 40.2708 16.9719 40.5984 16.9283 41.279C16.8468 42.5524 16.8369 43.5659 16.8989 44.3194C16.9608 45.0729 17.1403 45.7127 17.4373 46.2387C17.6357 46.5821 17.8816 46.8734 18.1749 47.1127C18.4902 47.3533 18.8507 47.5748 19.2566 47.7772C19.4883 47.9464 19.5964 48.1517 19.5809 48.3932C19.5654 48.6347 19.454 48.826 19.2465 48.967C18.7835 49.3121 18.2266 49.574 17.5759 49.7528C16.9456 49.9549 16.2683 50.0328 15.5438 49.9863C14.929 49.9469 14.3192 49.8307 13.7143 49.6376C13.1314 49.446 12.6213 49.1488 12.1842 48.746C11.7457 48.3652 11.4027 47.8692 11.1552 47.2581C10.9064 46.669 10.8094 45.9464 10.8643 45.0901C10.8938 44.6291 10.9385 44.1028 10.9985 43.5115C11.0584 42.9201 11.1204 42.2958 11.1846 41.6385C11.2707 40.9827 11.3473 40.3042 11.4142 39.603C11.4812 38.9019 11.5358 38.222 11.578 37.5633C11.623 36.8608 11.6337 36.1781 11.61 35.5152C11.6083 34.8537 11.6187 34.3474 11.6412 33.9961C11.6778 33.4253 11.9761 33.0696 12.5362 32.9291C13.0964 32.7887 13.9692 32.7564 15.1548 32.8324C16.516 32.9196 17.7232 33.1733 18.7765 33.5935C19.8284 34.0356 20.7833 34.6149 21.6413 35.3312C22.4992 36.0475 23.2719 36.8907 23.9593 37.8606C24.6686 38.8319 25.3277 39.8993 25.9366 41.0626C26.2733 41.6573 26.5607 42.1607 26.7988 42.5728C27.0589 42.9863 27.302 43.3215 27.528 43.5785C27.776 43.8369 28.0179 44.0177 28.2538 44.121C28.4883 44.2462 28.7482 44.318 29.0336 44.3363C29.4727 44.3644 29.8455 44.223 30.1521 43.9119C30.4572 43.6229 30.628 43.1929 30.6646 42.6221C30.7194 41.7658 30.4945 40.8035 29.9898 39.735C29.4851 38.6666 28.8802 37.6137 28.175 36.5765C28.034 36.3691 27.9684 36.1885 27.9783 36.0348C27.9965 35.7494 28.2131 35.4657 28.628 35.1836C29.0415 34.9235 29.5194 34.6896 30.0618 34.4819C30.6042 34.2741 31.1335 34.0986 31.6497 33.9553C32.1645 33.834 32.5317 33.7804 32.7513 33.7944Z" fill="white"/>
<path d="M22.8264 56.5992C24.8053 56.5357 26.6148 56.6758 28.2546 57.0194C29.8945 57.363 31.2988 57.9123 32.4676 58.6672C33.6591 59.4434 34.5927 60.415 35.2685 61.5819C35.945 62.7708 36.3086 64.1569 36.3594 65.7401C36.4102 67.3232 36.1457 68.6854 35.566 69.8266C34.987 70.9898 34.1374 71.9525 33.0173 72.7148C31.8971 73.4771 30.5288 74.0493 28.9122 74.4313C27.2963 74.8353 25.4659 75.0701 23.4209 75.1357C21.1561 75.2083 19.2024 75.0289 17.5597 74.5973C15.917 74.1658 14.5652 73.5378 13.5042 72.7134C12.4432 71.889 11.6412 70.9022 11.098 69.753C10.5769 68.6031 10.2948 67.3575 10.2518 66.0162C10.2095 64.6969 10.4126 63.4797 10.8611 62.3648C11.3315 61.2491 12.0705 60.2679 13.0778 59.4212C14.1079 58.5958 15.4185 57.9374 17.0095 57.4461C18.6226 56.9542 20.5615 56.6719 22.8264 56.5992ZM23.5944 63.0459C21.2197 63.1221 19.4893 63.3867 18.4032 63.8398C17.3392 64.2921 16.8234 65.024 16.8558 66.0355C16.8897 67.0909 17.4737 67.7986 18.6078 68.1584C19.7426 68.5402 21.4864 68.6934 23.8392 68.6179C26.236 68.5411 27.9877 68.2537 29.0943 67.756C30.2009 67.2583 30.7397 66.5586 30.7108 65.6571C30.6812 64.7336 30.0869 64.0483 28.928 63.6012C27.791 63.1534 26.0132 62.9683 23.5944 63.0459Z" fill="white"/>
<path d="M32.4436 79.2046C32.7273 79.1681 33.0127 79.2312 33.2998 79.3938C33.8277 79.7029 34.3463 80.113 34.8558 80.6241C35.3899 81.1542 35.8807 81.7786 36.3282 82.4973C36.7785 83.2379 37.1608 84.0537 37.4753 84.9448C37.8115 85.8331 38.0443 86.7792 38.1736 87.7829C38.3169 88.8957 38.2963 89.9409 38.1117 90.9185C37.9517 91.9151 37.6207 92.7895 37.1187 93.5418C36.6167 94.2941 35.9423 94.9134 35.0955 95.3996C34.2733 95.9047 33.2731 96.2332 32.0948 96.385C31.1129 96.5115 30.2138 96.5053 29.3973 96.3665C28.6027 96.2249 27.8335 95.9358 27.0896 95.4992C26.3704 95.0817 25.6519 94.4977 24.9341 93.7473C24.2192 93.0186 23.449 92.1197 22.6236 91.0504C21.8587 90.1063 21.1821 89.4171 20.5938 88.9828C20.0301 88.5674 19.4319 88.4004 18.7991 88.4819C18.4064 88.5325 18.2536 88.896 18.3407 89.5724C18.5037 90.838 18.6876 91.8347 18.8922 92.5625C19.0969 93.2903 19.3952 93.8841 19.7871 94.3437C20.0475 94.6429 20.3445 94.882 20.6781 95.0608C21.0335 95.2368 21.4297 95.3854 21.8668 95.5066C22.1264 95.6284 22.2718 95.8093 22.3027 96.0493C22.3336 96.2894 22.2607 96.4984 22.084 96.6764C21.6954 97.1036 21.1987 97.467 20.5941 97.7667C20.0141 98.0854 19.364 98.2912 18.644 98.3839C18.033 98.4626 17.4122 98.465 16.7816 98.3909C16.1728 98.3141 15.6154 98.1197 15.1094 97.8078C14.6062 97.5177 14.1748 97.0964 13.8153 96.5438C13.4585 96.013 13.2254 95.3221 13.1157 94.4712C13.0567 94.0129 13.0002 93.4879 12.9461 92.8959C12.892 92.304 12.8337 91.6793 12.7712 91.0219C12.7306 90.3617 12.6761 89.6811 12.608 88.98C12.5399 88.279 12.4637 87.6012 12.3793 86.9466C12.2894 86.2483 12.1695 85.5761 12.0198 84.93C11.8918 84.281 11.8053 83.782 11.7604 83.4329C11.6873 82.8655 11.9122 82.4595 12.4352 82.2146C12.9582 81.9698 13.8089 81.7715 14.9871 81.6197C16.34 81.4455 17.5734 81.464 18.6876 81.6754C19.8045 81.9086 20.8525 82.2949 21.8314 82.8342C22.8103 83.3736 23.7298 84.0537 24.5897 84.8746C25.4714 85.6926 26.3222 86.6145 27.1419 87.6401C27.586 88.1597 27.9642 88.5989 28.2766 88.958C28.6109 89.3142 28.9135 89.5968 29.1844 89.8059C29.4771 90.0122 29.7492 90.1435 30.0004 90.1999C30.2545 90.2781 30.5234 90.2989 30.807 90.2624C31.2434 90.2062 31.5823 89.9961 31.8238 89.6323C32.0681 89.2903 32.1538 88.8356 32.0807 88.2683C31.9711 87.4173 31.5665 86.5156 30.8671 85.5632C30.1677 84.6107 29.3729 83.6928 28.4827 82.8092C28.3047 82.6325 28.2058 82.4678 28.1862 82.3151C28.1496 82.0314 28.308 81.7116 28.6615 81.3555C29.0177 81.0212 29.4422 80.7004 29.9349 80.3929C30.4277 80.0854 30.9137 79.8121 31.3931 79.5729C31.8753 79.3555 32.2255 79.2327 32.4436 79.2046Z" fill="white"/>
<path d="M35.47 101.266C35.7489 101.203 36.039 101.239 36.3401 101.374C36.8946 101.632 37.4495 101.992 38.0048 102.453C38.5863 102.93 39.1336 103.506 39.6466 104.179C40.1645 104.874 40.6218 105.65 41.0186 106.508C41.4368 107.361 41.7574 108.281 41.9805 109.268C42.2277 110.362 42.3054 111.405 42.2134 112.396C42.1478 113.403 41.9004 114.304 41.4713 115.101C41.0422 115.897 40.429 116.577 39.6316 117.14C38.8605 117.72 37.8955 118.141 36.7367 118.403C35.7711 118.621 34.8753 118.7 34.0495 118.638C33.2451 118.572 32.4521 118.356 31.6705 117.992C30.9152 117.643 30.145 117.13 29.3599 116.45C28.5797 115.792 27.7285 114.969 26.8063 113.982C25.9561 113.114 25.2177 112.491 24.5912 112.114C23.991 111.754 23.3797 111.644 22.7574 111.784C22.3711 111.871 22.2531 112.248 22.4034 112.913C22.6846 114.158 22.9613 115.133 23.2334 115.838C23.5056 116.543 23.8583 117.106 24.2917 117.527C24.5791 117.801 24.8972 118.011 25.2461 118.157C25.6165 118.299 26.0249 118.41 26.4714 118.49C26.7414 118.586 26.9031 118.753 26.9564 118.989C27.0097 119.225 26.9568 119.44 26.7976 119.634C26.4508 120.096 25.9905 120.504 25.4167 120.859C24.8692 121.231 24.2413 121.497 23.5332 121.657C22.9323 121.793 22.3145 121.853 21.6797 121.839C21.0664 121.82 20.4932 121.678 19.9601 121.415C19.4319 121.174 18.9629 120.795 18.553 120.279C18.148 119.784 17.8509 119.118 17.6618 118.281C17.56 117.83 17.4544 117.313 17.3449 116.729C17.2355 116.144 17.1188 115.528 16.9948 114.879C16.8923 114.226 16.7741 113.553 16.6405 112.862C16.5068 112.17 16.3672 111.503 16.2218 110.859C16.0666 110.172 15.8841 109.514 15.6743 108.885C15.4859 108.251 15.353 107.762 15.2754 107.419C15.1493 106.861 15.3351 106.435 15.8328 106.143C16.3305 105.85 17.1588 105.572 18.3176 105.31C19.648 105.01 20.8778 104.912 22.0069 105.018C23.1408 105.145 24.2204 105.432 25.2457 105.877C26.2709 106.322 27.2502 106.912 28.1834 107.649C29.1381 108.38 30.0717 109.218 30.9842 110.162C31.4751 110.638 31.8929 111.04 32.2377 111.368C32.6039 111.691 32.9317 111.944 33.2211 112.127C33.5319 112.305 33.8151 112.41 34.0705 112.442C34.3308 112.496 34.6005 112.492 34.8794 112.429C35.3086 112.332 35.6263 112.091 35.8326 111.706C36.0437 111.342 36.0862 110.882 35.9601 110.324C35.771 109.487 35.2836 108.627 34.4978 107.745C33.712 106.862 32.8344 106.023 31.8652 105.227C31.6714 105.068 31.5575 104.913 31.5235 104.763C31.4605 104.484 31.5882 104.15 31.9066 103.763C32.2298 103.396 32.6223 103.037 33.0839 102.685C33.5456 102.332 34.0039 102.015 34.4586 101.731C34.9183 101.47 35.2554 101.315 35.47 101.266Z" fill="white"/>
<path d="M35.5548 141.044C39.0443 139.638 41.9036 138.641 44.1328 138.051C46.3701 137.482 47.8523 137.157 48.5793 137.078C48.8979 137.045 49.1328 137.069 49.2842 137.15C49.4438 137.252 49.5666 137.38 49.6528 137.535C49.8498 137.906 50.0407 138.292 50.2255 138.692C50.4186 139.112 50.5973 139.526 50.7617 139.935C51.1234 140.832 51.4257 141.671 51.6686 142.451C51.7389 142.802 51.6108 143.043 51.2843 143.175C51.121 143.241 50.7944 143.313 50.3043 143.392C49.8429 143.483 49.2652 143.609 48.5711 143.77C47.8769 143.931 47.0706 144.137 46.152 144.389C45.2416 144.66 44.2661 145.006 43.2254 145.425C42.8784 145.565 42.6296 145.713 42.4788 145.868C42.328 146.024 42.2304 146.194 42.1859 146.377C42.1743 146.643 42.2629 146.951 42.4517 147.302C42.6608 147.645 42.8846 148.112 43.123 148.704C43.3861 149.357 43.5712 149.875 43.6783 150.259C43.8141 150.655 43.9741 150.934 44.1583 151.097C44.5061 151.313 44.9759 151.302 45.5677 151.063C46.4656 150.702 47.3123 150.301 48.1079 149.862C48.9117 149.444 49.6256 149.037 50.2497 148.644C50.8942 148.242 51.4408 147.891 51.8894 147.592C52.3463 147.313 52.6666 147.136 52.8502 147.062C53.1767 146.931 53.4364 147.016 53.6291 147.318C53.8179 147.669 53.9945 148.048 54.1589 148.456C54.3437 148.856 54.5183 149.26 54.6827 149.669C55.028 150.526 55.3426 151.395 55.6266 152.277C55.6884 152.489 55.6869 152.691 55.622 152.883C55.5775 153.067 55.4247 153.247 55.1637 153.424C54.5846 153.87 53.2874 154.654 51.272 155.774C49.2566 156.894 46.5041 158.157 43.0146 159.563C41.9738 159.982 40.9555 160.369 39.9595 160.722C38.984 161.068 38.086 161.37 37.2654 161.63C36.4449 161.889 35.7223 162.097 35.0977 162.254C34.4812 162.431 34.0178 162.547 33.7074 162.6C33.3277 162.659 33.0519 162.651 32.8801 162.578C32.7288 162.497 32.5834 162.342 32.4439 162.113C32.2509 161.693 32.0537 161.262 31.8525 160.822C31.6595 160.401 31.4766 159.977 31.304 159.548C30.9588 158.691 30.6359 157.802 30.3354 156.879C30.294 156.658 30.2834 156.485 30.3035 156.358C30.3523 156.244 30.4685 156.149 30.6521 156.075C30.8562 155.993 31.24 155.886 31.8034 155.754C32.3669 155.622 32.9854 155.479 33.6591 155.327C34.3615 155.186 35.0658 155.021 35.7721 154.831C36.4988 154.633 37.1172 154.432 37.6274 154.226C38.4028 153.914 38.8716 153.488 39.0337 152.948C39.2244 152.421 39.1513 151.739 38.8143 150.902C38.3457 149.739 37.7924 149.013 37.1544 148.724C36.5164 148.436 35.7383 148.477 34.82 148.847C34.2282 149.085 33.6222 149.376 33.0021 149.721C32.4106 150.078 31.8497 150.423 31.3194 150.755C30.8095 151.079 30.3466 151.372 29.9305 151.634C29.5431 151.909 29.2575 152.083 29.0739 152.157C28.7269 152.297 28.4693 152.187 28.3009 151.828C27.8945 150.996 27.5022 150.11 27.124 149.172C26.9432 148.723 26.7684 148.259 26.5998 147.782C26.4393 147.325 26.2932 146.874 26.1614 146.429C26.1118 146.188 26.1134 145.986 26.1661 145.822C26.2474 145.671 26.439 145.499 26.7408 145.306C27.0019 145.13 27.4118 144.881 27.9708 144.561C28.5379 144.262 29.2071 143.921 29.9782 143.539C30.7494 143.157 31.6064 142.753 32.549 142.326C33.5121 141.89 34.514 141.463 35.5548 141.044Z" fill="white"/>
<path d="M41.5179 168.2C42.822 167.513 44.1901 166.83 45.6223 166.15C47.0545 165.47 48.502 164.819 49.965 164.198C51.4474 163.566 52.9257 162.974 54.4 162.421C55.904 161.877 57.3552 161.399 58.7537 160.985C58.9985 160.931 59.2198 160.926 59.4176 160.971C59.6451 161.025 59.825 161.154 59.9572 161.358C60.2833 161.883 60.7278 162.656 61.2907 163.677C61.8731 164.688 62.4719 165.778 63.0871 166.945C63.7639 168.23 64.3904 169.467 64.9667 170.655C65.5533 171.863 66.0219 172.847 66.3726 173.607C66.466 173.831 66.4942 174.003 66.4574 174.122C66.4205 174.241 66.3534 174.326 66.2561 174.377C66.1588 174.428 65.9191 174.492 65.5369 174.569C65.165 174.666 64.729 174.759 64.2291 174.848C63.7393 174.957 63.2296 175.051 62.6999 175.131C62.1999 175.221 61.7537 175.294 61.3613 175.352C61.1062 175.387 60.9171 175.287 60.794 175.054C60.7325 174.937 60.6853 174.8 60.6525 174.643C60.6196 174.487 60.5857 174.281 60.5508 174.026C60.4707 173.496 60.3147 172.869 60.0828 172.146C59.8807 171.432 59.5489 170.637 59.0875 169.761C58.8311 169.275 58.5871 168.906 58.3555 168.655C58.1238 168.404 57.8548 168.247 57.5484 168.185C57.1825 168.104 56.6866 168.154 56.0607 168.334C55.4347 168.515 54.8394 168.754 54.275 169.051C53.6911 169.359 53.5375 169.776 53.8144 170.301C54.081 170.807 54.4664 171.35 54.9708 171.93C55.4854 172.529 55.9632 173.247 56.4041 174.084C56.722 174.688 56.925 175.215 57.0133 175.665C57.1211 176.106 57.0387 176.398 56.7662 176.542C56.6105 176.624 56.3467 176.713 55.9748 176.809C55.6131 176.925 55.2023 177.042 54.7423 177.16C54.312 177.287 53.8714 177.395 53.4206 177.484C52.9995 177.581 52.6271 177.653 52.3033 177.699C52.0974 177.733 51.9447 177.726 51.8453 177.679C51.7561 177.652 51.6808 177.579 51.6193 177.463C51.5065 177.249 51.3793 176.818 51.2376 176.172C51.096 175.525 50.8457 174.861 50.4868 174.18C49.9741 173.207 49.4206 172.628 48.8262 172.444C48.2616 172.269 47.6094 172.376 46.8698 172.766C46.3637 173.033 45.9606 173.282 45.6605 173.515C45.3901 173.757 45.2032 173.992 45.0998 174.221C45.0066 174.469 44.9878 174.74 45.0432 175.034C45.1181 175.318 45.253 175.644 45.4478 176.014C46.1348 177.318 46.8653 178.351 47.6392 179.112C48.4325 179.863 49.1039 180.429 49.6533 180.811C49.8131 180.926 49.9279 181.002 49.9976 181.04C50.0673 181.078 50.1278 181.145 50.1791 181.243C50.2714 181.418 50.2407 181.596 50.0871 181.776C49.9048 181.996 49.5959 182.283 49.1606 182.637C48.7355 183.01 48.271 183.379 47.767 183.744C47.2927 184.118 46.8128 184.458 46.3273 184.764C45.8519 185.089 45.478 185.323 45.2055 185.467C44.6995 185.733 44.2783 185.595 43.942 185.051C43.4006 184.117 42.8331 183.111 42.2394 182.031C41.656 180.971 41.0772 179.896 40.5029 178.806C39.8262 177.521 39.1848 176.28 38.5788 175.082C37.983 173.904 37.4739 172.867 37.0514 171.971C36.8965 171.629 36.8216 171.346 36.8266 171.119C36.8419 170.912 37.0196 170.707 37.3597 170.503C38.6136 169.768 39.9996 169 41.5179 168.2Z" fill="white"/>
<path d="M74.1001 185.259C74.4411 185.455 74.6603 185.626 74.7574 185.773C74.891 185.975 74.9573 186.234 74.9563 186.552C74.9565 188.425 74.6763 190.194 74.1158 191.858C73.5674 193.54 72.766 195.139 71.7117 196.655C70.6758 198.159 69.4173 199.586 67.9364 200.936C66.486 202.292 64.8436 203.577 63.0093 204.792C62.4223 205.18 61.8048 205.563 61.1568 205.939C60.521 206.334 59.8486 206.713 59.1396 207.077C58.8218 207.234 58.5593 207.276 58.3521 207.202C58.1632 207.116 57.9654 206.957 57.7587 206.724C57.5155 206.437 57.2664 206.101 57.0114 205.715C56.7501 205.361 56.4981 205 56.2551 204.633C55.9515 204.174 55.6692 203.728 55.4082 203.294C55.141 202.89 54.9286 202.53 54.7709 202.212C54.5831 201.809 54.6542 201.498 54.9844 201.279C55.2963 201.073 55.8034 200.842 56.5059 200.588C57.2084 200.334 57.9816 199.928 58.8254 199.369C59.3757 199.005 59.6729 198.597 59.7171 198.146C59.7917 197.7 59.6286 197.175 59.2278 196.57C58.9606 196.166 58.6597 195.811 58.3251 195.505C58.0088 195.187 57.6679 194.951 57.3023 194.797C56.955 194.631 56.58 194.563 56.1771 194.592C55.7927 194.609 55.4078 194.745 55.0226 195C54.3989 195.413 53.8698 195.83 53.4353 196.249C53.0129 196.687 52.6182 197.028 52.2513 197.271C51.9454 197.526 51.674 197.495 51.4371 197.177C51.1939 196.889 50.9387 196.543 50.6715 196.14C50.3981 195.767 50.1157 195.36 49.8242 194.92C49.5934 194.571 49.3748 194.241 49.1684 193.929C48.974 193.636 48.7828 193.327 48.5947 193.003C48.443 192.734 48.3552 192.502 48.3315 192.307C48.3198 192.13 48.4303 191.938 48.6628 191.731C49.2379 191.245 49.8251 190.777 50.4245 190.327C51.0544 189.884 51.6995 189.443 52.3599 189.006C53.9742 187.937 55.6796 186.967 57.4763 186.094C59.2851 185.239 61.1207 184.604 62.983 184.189C64.8637 183.762 66.7375 183.603 68.6043 183.713C70.5015 183.828 72.3335 184.344 74.1001 185.259ZM60.7451 191.449C60.525 191.595 60.4756 191.759 60.5971 191.943C60.7064 192.108 60.968 192.344 61.382 192.65C61.8081 192.975 62.243 193.413 62.6866 193.963C62.9419 194.269 63.1425 194.532 63.2882 194.752C63.4644 194.978 63.6256 195.162 63.7715 195.303C64.0392 195.548 64.3565 195.549 64.7234 195.306C65.1637 195.014 65.6011 194.659 66.0356 194.239C66.4702 193.819 66.8713 193.369 67.2389 192.888C67.6187 192.426 67.9527 191.954 68.241 191.473C68.5293 190.992 68.7321 190.541 68.8494 190.12C68.9356 189.852 68.9545 189.681 68.9059 189.608C68.833 189.498 68.6502 189.421 68.3575 189.377C67.7353 189.314 67.0732 189.331 66.3712 189.426C65.6692 189.521 64.9732 189.666 64.283 189.859C63.6051 190.07 62.9514 190.318 62.322 190.603C61.711 190.876 61.1854 191.158 60.7451 191.449Z" fill="white"/>
<path d="M83.4451 200.436C83.9079 200.204 84.2792 200.243 84.5588 200.555C84.7693 200.781 85.0351 201.075 85.3562 201.438C85.691 201.818 86.045 202.239 86.418 202.701C86.8186 203.198 87.2038 203.693 87.5735 204.186C87.957 204.696 88.249 205.111 88.4496 205.43C88.5845 205.632 88.6453 205.795 88.6321 205.918C88.6188 206.042 88.5523 206.152 88.4325 206.249C88.3297 206.332 87.9972 206.516 87.4349 206.8C86.8898 207.07 86.1955 207.418 85.352 207.844C84.5224 208.287 83.5864 208.774 82.5441 209.304C81.5157 209.851 80.4684 210.428 79.4024 211.034C78.3673 211.643 77.3461 212.269 76.3386 212.912C75.3312 213.555 74.4422 214.188 73.6717 214.809C72.9698 215.376 72.5851 215.828 72.5178 216.165C72.4505 216.502 72.5964 216.893 72.9556 217.338C73.3977 217.886 73.9494 218.359 74.6108 218.758C75.2892 219.144 75.9296 219.447 76.5318 219.668C76.7727 219.756 76.9448 219.829 77.0481 219.887C77.1514 219.945 77.2307 220.008 77.2859 220.077C77.4241 220.248 77.4352 220.437 77.3192 220.644C77.1657 220.909 76.9095 221.257 76.5505 221.688C76.2225 222.122 75.855 222.56 75.448 223.002C75.0547 223.46 74.6648 223.888 74.2783 224.285C73.8917 224.681 73.57 224.983 73.3131 225.191C72.8337 225.577 72.3559 225.511 71.8795 224.99C71.3341 224.385 70.7559 223.72 70.1447 222.998C69.5473 222.293 68.9517 221.572 68.3576 220.836C67.5702 219.86 66.8189 218.911 66.1038 217.99C65.4026 217.086 64.8066 216.295 64.3158 215.616C64.0981 215.312 63.9699 215.048 63.9312 214.824C63.9062 214.618 64.041 214.382 64.3353 214.117C65.4068 213.167 66.5931 212.168 67.8944 211.118C69.0586 210.178 70.2795 209.221 71.557 208.247C72.8345 207.273 74.1328 206.324 75.4517 205.401C76.8016 204.482 78.1396 203.6 79.4657 202.756C80.8228 201.916 82.1493 201.142 83.4451 200.436Z" fill="white"/>
<path d="M92.1406 217.814C92.4121 217.621 92.6401 217.559 92.8244 217.628C93.0248 217.682 93.208 217.782 93.374 217.928C93.661 218.172 93.9169 218.414 94.1417 218.656C94.3666 218.898 94.5839 219.131 94.7937 219.357C95.0185 219.598 95.2353 219.847 95.444 220.104C95.6688 220.345 95.9006 220.61 96.1393 220.899C96.4518 221.3 96.4631 221.635 96.1732 221.905C96.0444 222.024 95.8033 222.234 95.4501 222.532C95.1131 222.816 94.696 223.159 94.199 223.561C93.717 223.98 93.1786 224.451 92.5838 224.974C91.989 225.498 91.3696 226.059 90.7254 226.659C89.5175 227.783 88.4443 228.842 87.5057 229.836C86.5672 230.829 85.7489 231.726 85.0508 232.526C84.3677 233.342 83.7984 234.022 83.343 234.566C82.9037 235.095 82.5794 235.457 82.37 235.652C82.2251 235.787 82.0754 235.836 81.9211 235.799C81.7817 235.779 81.644 235.711 81.508 235.598C80.9202 235.063 80.289 234.433 79.6146 233.708C78.9551 233 78.3647 232.317 77.8435 231.66C77.7397 231.516 77.6601 231.35 77.6046 231.161C77.5802 230.973 77.6819 230.743 77.9096 230.471C78.611 229.578 79.4057 228.688 80.2937 227.802C81.1979 226.9 82.1492 225.985 83.1477 225.056C84.6132 223.692 86.1162 222.368 87.6567 221.085C89.2122 219.818 90.7068 218.727 92.1406 217.814ZM99.8376 214.798C100.722 215.748 101.166 216.597 101.17 217.344C101.175 218.091 100.855 218.765 100.211 219.364C99.5824 219.949 98.9039 220.205 98.1749 220.132C97.462 220.044 96.6634 219.525 95.7791 218.575C94.9398 217.673 94.4869 216.847 94.4205 216.098C94.3851 215.349 94.6814 214.683 95.3095 214.098C95.9537 213.499 96.6559 213.236 97.416 213.31C98.191 213.4 98.9982 213.896 99.8376 214.798Z" fill="white"/>
<path d="M90.6785 244.999C90.3031 244.659 89.9515 244.327 89.6235 244C89.2972 243.705 89.0182 243.423 88.7866 243.155C88.4407 242.783 88.3835 242.42 88.6149 242.065C89.5714 240.646 90.6507 239.19 91.8527 237.697C93.0694 236.187 94.3122 234.73 95.581 233.327C96.5401 232.266 97.4859 231.253 98.4185 230.287C99.3674 229.335 100.243 228.481 101.046 227.724C101.864 226.951 102.595 226.307 103.239 225.791C103.897 225.26 104.416 224.883 104.794 224.662C105.202 224.408 105.607 224.418 106.01 224.694C106.27 224.899 106.538 225.127 106.816 225.378C107.108 225.612 107.393 225.855 107.67 226.106C107.948 226.356 108.201 226.601 108.432 226.838C108.693 227.074 108.922 227.296 109.119 227.505C109.349 227.742 109.436 228.073 109.38 228.496C109.267 229.67 108.892 231.496 108.254 233.973C107.632 236.466 106.667 239.583 105.36 243.324C105.308 243.514 105.33 243.653 105.428 243.742C105.608 243.904 105.808 243.863 106.029 243.618C107.195 242.329 108.206 241.063 109.062 239.82C109.95 238.576 110.703 237.448 111.322 236.435C111.957 235.438 112.459 234.587 112.828 233.883C113.214 233.194 113.503 232.743 113.695 232.531C113.96 232.237 114.255 232.207 114.578 232.44C114.869 232.643 115.194 232.907 115.553 233.232C115.926 233.54 116.301 233.864 116.676 234.203C117.003 234.498 117.305 234.787 117.584 235.069C117.894 235.349 118.149 235.609 118.348 235.848C118.513 236.026 118.607 236.201 118.631 236.371C118.672 236.556 118.62 236.761 118.475 236.986C118.029 237.71 117.485 238.508 116.844 239.382C116.217 240.239 115.523 241.138 114.76 242.08C114.029 243.02 113.236 243.979 112.382 244.957C111.559 245.933 110.719 246.894 109.863 247.841C108.639 249.195 107.426 250.471 106.225 251.669C105.04 252.881 103.961 253.893 102.99 254.705C102.511 255.103 102.036 255.104 101.565 254.707C101.289 254.487 100.955 254.2 100.563 253.846C100.157 253.509 99.7579 253.163 99.3662 252.809C99.0888 252.558 98.8358 252.329 98.6073 252.122C98.3789 251.916 98.1896 251.715 98.0396 251.52C97.7917 251.237 97.6557 251.01 97.6315 250.84C97.6074 250.67 97.6807 250.425 97.8515 250.105C98.9902 247.664 99.9161 245.328 100.629 243.096C101.359 240.878 101.9 238.803 102.255 236.869C102.3 236.524 102.265 236.3 102.151 236.197C102.037 236.093 101.903 236.077 101.751 236.147C101.599 236.217 101.456 236.325 101.324 236.472C100.378 237.485 99.4587 238.567 98.5665 239.718C97.6907 240.884 96.9042 241.967 96.2069 242.968C95.5097 243.969 94.9297 244.823 94.467 245.532C94.0353 246.239 93.7826 246.634 93.7088 246.715C93.5465 246.895 93.3869 246.973 93.23 246.95C93.0894 246.941 92.9383 246.879 92.7766 246.762C92.5023 246.573 92.1775 246.309 91.8022 245.97C91.4284 245.662 91.0538 245.338 90.6785 244.999Z" fill="white"/>
<path d="M133.409 246.879C134.424 247.615 135.191 248.375 135.71 249.159C136.241 249.924 136.569 250.691 136.691 251.459C136.844 252.223 136.815 252.976 136.602 253.718C136.403 254.443 136.077 255.118 135.625 255.741C135.406 256.044 135.156 256.257 134.877 256.38C134.615 256.516 134.315 256.612 133.977 256.665C133.547 256.734 133.039 256.76 132.453 256.743C131.886 256.739 131.319 256.695 130.755 256.612C130.208 256.542 129.696 256.442 129.218 256.314C128.759 256.198 128.431 256.069 128.235 255.927C127.95 255.72 127.918 255.466 128.137 255.163C128.227 255.038 128.318 254.914 128.408 254.789C128.529 254.659 128.642 254.523 128.745 254.381C128.938 254.114 129.112 253.818 129.265 253.494C129.431 253.153 129.536 252.821 129.579 252.499C129.635 252.159 129.617 251.847 129.524 251.563C129.444 251.26 129.253 250.999 128.95 250.78C128.149 250.199 127.118 250.253 125.857 250.942C124.61 251.614 123.256 252.956 121.797 254.969C121.022 256.038 120.448 256.98 120.074 257.796C119.7 258.611 119.483 259.323 119.422 259.932C119.379 260.553 119.465 261.091 119.679 261.545C119.907 261.981 120.243 262.361 120.688 262.684C121.365 263.174 122.008 263.355 122.618 263.226C123.245 263.111 123.804 262.714 124.295 262.037C124.669 261.521 124.846 261.052 124.826 260.629C124.837 260.202 124.663 259.75 124.303 259.272C124.105 259.02 124.103 258.76 124.297 258.493C124.426 258.315 124.552 258.216 124.675 258.196C124.828 258.172 125.089 258.225 125.456 258.355C125.964 258.479 126.545 258.615 127.199 258.762C127.87 258.923 128.518 259.08 129.14 259.233C129.781 259.398 130.343 259.561 130.825 259.72C131.32 259.862 131.639 259.984 131.782 260.087C132.084 260.307 132.12 260.632 131.89 261.063C131.303 262.023 130.715 262.983 130.128 263.943C129.554 264.885 128.918 265.837 128.22 266.799C126.942 268.562 125.323 269.522 123.363 269.677C121.433 269.827 119.32 269.069 117.022 267.403C114.368 265.479 112.91 263.199 112.647 260.563C112.402 257.94 113.319 255.195 115.397 252.327C116.598 250.67 117.922 249.239 119.367 248.031C120.813 246.824 122.313 245.955 123.866 245.423C125.433 244.874 127.027 244.699 128.65 244.897C130.273 245.095 131.859 245.756 133.409 246.879Z" fill="white"/>
<path d="M149.143 274.53C150.822 271.163 152.299 268.52 153.576 266.6C154.873 264.69 155.767 263.464 156.259 262.922C156.475 262.686 156.667 262.548 156.834 262.508C157.021 262.479 157.198 262.493 157.365 262.552C157.759 262.699 158.157 262.861 158.561 263.038C158.984 263.224 159.393 263.416 159.787 263.612C160.653 264.044 161.435 264.471 162.134 264.894C162.42 265.11 162.484 265.375 162.327 265.69C162.249 265.848 162.052 266.119 161.738 266.503C161.453 266.877 161.104 267.354 160.691 267.935C160.279 268.516 159.812 269.206 159.291 270.003C158.791 270.81 158.29 271.716 157.789 272.72C157.622 273.055 157.534 273.33 157.524 273.547C157.515 273.763 157.554 273.955 157.643 274.122C157.81 274.329 158.081 274.501 158.455 274.638C158.839 274.756 159.316 274.957 159.887 275.241C160.517 275.556 161 275.821 161.334 276.037C161.699 276.243 162.004 276.346 162.25 276.346C162.653 276.277 162.997 275.956 163.282 275.386C163.714 274.519 164.082 273.658 164.386 272.802C164.71 271.955 164.975 271.178 165.18 270.469C165.396 269.741 165.573 269.116 165.71 268.594C165.867 268.082 165.989 267.738 166.078 267.561C166.235 267.246 166.485 267.137 166.83 267.235C167.204 267.373 167.588 267.54 167.982 267.736C168.385 267.913 168.784 268.099 169.178 268.295C170.004 268.708 170.817 269.15 171.614 269.621C171.801 269.739 171.934 269.891 172.013 270.078C172.102 270.245 172.107 270.482 172.028 270.787C171.891 271.505 171.44 272.952 170.675 275.127C169.91 277.302 168.688 280.073 167.009 283.439C166.508 284.444 166.003 285.408 165.492 286.334C164.991 287.239 164.52 288.061 164.078 288.8C163.636 289.538 163.233 290.173 162.87 290.705C162.526 291.246 162.256 291.64 162.059 291.886C161.814 292.182 161.602 292.359 161.425 292.418C161.258 292.458 161.047 292.438 160.791 292.36C160.367 292.173 159.934 291.982 159.491 291.786C159.068 291.599 158.65 291.403 158.236 291.197C157.409 290.784 156.578 290.333 155.741 289.842C155.564 289.704 155.44 289.581 155.371 289.473C155.332 289.355 155.356 289.207 155.445 289.03C155.543 288.833 155.759 288.499 156.093 288.026C156.427 287.553 156.795 287.036 157.198 286.475C157.631 285.904 158.048 285.313 158.451 284.703C158.863 284.073 159.192 283.512 159.438 283.019C159.811 282.271 159.879 281.642 159.643 281.13C159.435 280.609 158.928 280.147 158.121 279.745C156.999 279.185 156.103 279.009 155.434 279.216C154.766 279.423 154.21 279.97 153.769 280.856C153.484 281.427 153.224 282.047 152.988 282.716C152.782 283.376 152.591 284.006 152.415 284.606C152.248 285.187 152.096 285.713 151.959 286.186C151.851 286.648 151.753 286.968 151.665 287.145C151.498 287.48 151.232 287.569 150.868 287.412C150.012 287.058 149.131 286.656 148.225 286.204C147.792 285.988 147.354 285.757 146.911 285.512C146.488 285.276 146.079 285.036 145.685 284.79C145.488 284.643 145.355 284.49 145.286 284.333C145.247 284.166 145.276 283.91 145.374 283.565C145.452 283.26 145.595 282.803 145.801 282.193C146.026 281.592 146.301 280.893 146.625 280.096C146.949 279.299 147.322 278.428 147.744 277.483C148.176 276.518 148.642 275.534 149.143 274.53Z" fill="white"/>
<path d="M177.605 277.891C177.767 277.601 177.947 277.447 178.143 277.43C178.347 277.393 178.555 277.405 178.768 277.466C179.132 277.563 179.467 277.672 179.774 277.794C180.08 277.916 180.377 278.034 180.663 278.148C180.97 278.27 181.272 278.402 181.571 278.544C181.878 278.666 182.201 278.806 182.54 278.965C182.994 279.193 183.148 279.491 183.002 279.859C182.937 280.022 182.808 280.314 182.617 280.736C182.434 281.136 182.205 281.625 181.928 282.202C181.672 282.787 181.388 283.443 181.075 284.171C180.762 284.899 180.443 285.671 180.118 286.489C179.508 288.023 178.992 289.439 178.57 290.739C178.148 292.039 177.793 293.2 177.506 294.222C177.238 295.252 177.015 296.111 176.837 296.797C176.667 297.464 176.529 297.93 176.424 298.196C176.35 298.38 176.236 298.488 176.081 298.521C175.946 298.562 175.793 298.561 175.622 298.516C174.861 298.285 174.021 297.986 173.101 297.621C172.201 297.263 171.375 296.899 170.623 296.529C170.467 296.444 170.324 296.328 170.193 296.181C170.091 296.022 170.084 295.771 170.173 295.427C170.424 294.32 170.761 293.175 171.183 291.993C171.613 290.791 172.08 289.556 172.584 288.289C173.324 286.429 174.114 284.588 174.956 282.769C175.818 280.957 176.701 279.331 177.605 277.891ZM183.266 271.867C184.472 272.347 185.237 272.923 185.562 273.596C185.886 274.27 185.885 275.015 185.56 275.833C185.243 276.63 184.74 277.152 184.05 277.399C183.368 277.625 182.424 277.498 181.218 277.019C180.073 276.564 179.31 276.012 178.929 275.363C178.576 274.702 178.558 273.973 178.875 273.176C179.2 272.358 179.722 271.82 180.44 271.561C181.179 271.31 182.121 271.412 183.266 271.867Z" fill="white"/>
<path d="M187.268 291.221C187.905 289.161 188.641 287.04 189.478 284.858C190.335 282.682 191.351 280.624 192.526 278.685C192.761 278.297 193.103 278.161 193.551 278.277C194.068 278.39 194.698 278.551 195.44 278.757C196.182 278.964 196.932 279.184 197.688 279.418C199.223 279.892 200.591 280.419 201.794 280.998C203.024 281.563 204.003 282.269 204.731 283.116C205.487 283.948 205.955 284.968 206.134 286.175C206.314 287.381 206.134 288.857 205.594 290.602C205.146 292.052 204.559 293.241 203.835 294.168C203.132 295.102 202.337 295.847 201.452 296.402C200.566 296.957 199.618 297.378 198.609 297.664C197.606 297.93 196.601 298.126 195.595 298.252C194.97 298.335 194.447 298.427 194.024 298.526C193.609 298.605 193.263 298.717 192.988 298.862C192.719 298.986 192.507 299.151 192.352 299.356C192.203 299.54 192.083 299.78 191.992 300.074C191.901 300.368 191.835 300.693 191.794 301.049C191.759 301.384 191.728 301.708 191.7 302.022C191.693 302.342 191.682 302.638 191.667 302.91C191.659 303.16 191.638 303.338 191.606 303.443C191.508 303.759 191.253 303.875 190.841 303.794C190.492 303.732 190.075 303.626 189.592 303.477C189.123 303.355 188.626 303.213 188.101 303.05C187.239 302.784 186.439 302.502 185.702 302.205C185.478 302.112 185.294 301.998 185.152 301.862C185.031 301.732 184.987 301.5 185.022 301.166C185.161 299.896 185.414 298.408 185.78 296.702C186.174 294.982 186.67 293.155 187.268 291.221ZM193.974 293.329C194.268 293.42 194.672 293.453 195.187 293.428C195.728 293.388 196.247 293.238 196.742 292.977C197.348 292.657 197.934 292.102 198.501 291.31C199.075 290.497 199.524 289.565 199.849 288.514C200.168 287.484 200.229 286.617 200.033 285.911C199.836 285.206 199.265 284.707 198.319 284.414C198.004 284.317 197.742 284.27 197.533 284.275C197.352 284.265 197.179 284.304 197.014 284.391C196.546 284.637 196.04 285.344 195.495 286.511C194.977 287.664 194.449 289.112 193.909 290.857C193.669 291.635 193.546 292.218 193.54 292.608C193.535 292.998 193.679 293.238 193.974 293.329Z" fill="white"/>
<path d="M210.468 298.028C210.901 295.916 211.426 293.733 212.045 291.479C212.685 289.23 213.495 287.082 214.475 285.037C214.671 284.628 214.997 284.459 215.454 284.531C215.98 284.593 216.623 284.691 217.381 284.824C218.14 284.957 218.908 285.103 219.683 285.261C221.257 285.584 222.67 285.974 223.924 286.433C225.203 286.874 226.247 287.481 227.054 288.252C227.888 289.007 228.453 289.976 228.75 291.159C229.047 292.343 229.012 293.829 228.646 295.618C228.341 297.105 227.874 298.346 227.244 299.34C226.635 300.338 225.918 301.156 225.091 301.796C224.264 302.435 223.362 302.946 222.385 303.33C221.413 303.693 220.432 303.986 219.443 304.21C218.83 304.354 218.318 304.496 217.907 304.637C217.501 304.756 217.168 304.901 216.908 305.072C216.653 305.222 216.458 305.407 216.323 305.626C216.193 305.824 216.097 306.074 216.035 306.376C215.974 306.678 215.94 307.007 215.934 307.366C215.932 307.702 215.933 308.028 215.936 308.343C215.96 308.662 215.978 308.958 215.99 309.23C216.006 309.48 216.003 309.659 215.981 309.767C215.915 310.09 215.673 310.231 215.254 310.191C214.901 310.163 214.476 310.099 213.98 309.997C213.502 309.922 212.993 309.829 212.454 309.719C211.571 309.538 210.747 309.336 209.985 309.112C209.752 309.042 209.558 308.946 209.404 308.825C209.27 308.708 209.204 308.481 209.206 308.144C209.22 306.867 209.326 305.362 209.524 303.628C209.748 301.878 210.062 300.011 210.468 298.028ZM217.348 299.47C217.65 299.531 218.055 299.525 218.565 299.449C219.1 299.357 219.601 299.156 220.069 298.848C220.64 298.471 221.169 297.86 221.656 297.017C222.148 296.152 222.504 295.18 222.724 294.103C222.94 293.047 222.916 292.177 222.652 291.494C222.387 290.811 221.77 290.371 220.8 290.172C220.477 290.106 220.212 290.085 220.005 290.11C219.823 290.118 219.655 290.174 219.499 290.276C219.058 290.568 218.623 291.321 218.195 292.536C217.792 293.733 217.408 295.227 217.042 297.015C216.879 297.813 216.813 298.406 216.846 298.794C216.879 299.183 217.046 299.408 217.348 299.47Z" fill="white"/>
<path d="M235.936 293.645C236.021 293.323 236.156 293.129 236.341 293.064C236.529 292.976 236.734 292.935 236.955 292.94C237.332 292.943 237.684 292.964 238.011 293.005C238.339 293.046 238.655 293.085 238.961 293.123C239.288 293.163 239.614 293.215 239.939 293.278C240.267 293.318 240.615 293.372 240.983 293.44C241.48 293.546 241.704 293.796 241.655 294.189C241.633 294.363 241.583 294.679 241.504 295.134C241.428 295.568 241.329 296.099 241.207 296.727C241.107 297.357 240.997 298.064 240.877 298.847C240.758 299.631 240.644 300.459 240.536 301.332C240.332 302.97 240.19 304.471 240.11 305.835C240.029 307.2 239.978 308.413 239.957 309.474C239.958 310.538 239.959 311.425 239.96 312.135C239.963 312.822 239.947 313.308 239.912 313.592C239.887 313.788 239.804 313.922 239.662 313.993C239.542 314.067 239.394 314.104 239.216 314.104C238.422 314.072 237.534 313.995 236.551 313.873C235.591 313.754 234.7 313.61 233.878 313.441C233.706 313.398 233.538 313.322 233.375 313.213C233.235 313.085 233.166 312.843 233.165 312.488C233.129 311.353 233.166 310.161 233.277 308.911C233.39 307.639 233.531 306.327 233.699 304.973C233.946 302.986 234.247 301.006 234.603 299.033C234.98 297.062 235.425 295.267 235.936 293.645ZM239.896 286.389C241.184 286.549 242.07 286.914 242.554 287.483C243.037 288.053 243.225 288.775 243.116 289.648C243.011 290.5 242.655 291.132 242.05 291.544C241.447 291.935 240.502 292.05 239.213 291.891C237.991 291.739 237.113 291.397 236.581 290.865C236.073 290.315 235.871 289.614 235.977 288.762C236.086 287.889 236.455 287.236 237.085 286.805C237.737 286.376 238.674 286.237 239.896 286.389Z" fill="white"/>
<path d="M248.154 309.357C248.224 307.884 248.329 306.359 248.469 304.78C248.609 303.2 248.783 301.623 248.989 300.047C249.197 298.449 249.436 296.874 249.707 295.323C250.001 293.751 250.325 292.258 250.678 290.843C250.755 290.604 250.863 290.411 251.003 290.264C251.165 290.095 251.367 290.005 251.61 289.995C252.227 289.98 253.119 289.989 254.285 290.022C255.451 290.033 256.694 290.069 258.013 290.131C259.463 290.199 260.846 290.287 262.163 290.393C263.501 290.5 264.587 290.595 265.42 290.678C265.661 290.711 265.823 290.774 265.907 290.866C265.99 290.958 266.03 291.059 266.025 291.169C266.019 291.279 265.953 291.518 265.826 291.886C265.72 292.256 265.579 292.679 265.402 293.155C265.248 293.632 265.071 294.119 264.871 294.617C264.695 295.093 264.532 295.515 264.382 295.882C264.283 296.12 264.101 296.232 263.838 296.22C263.706 296.214 263.564 296.185 263.412 296.134C263.26 296.082 263.066 296.007 262.828 295.908C262.331 295.708 261.712 295.525 260.971 295.358C260.253 295.17 259.4 295.053 258.411 295.006C257.861 294.98 257.42 295.004 257.086 295.076C256.752 295.148 256.481 295.301 256.272 295.533C256.016 295.808 255.808 296.26 255.646 296.891C255.484 297.522 255.388 298.157 255.358 298.794C255.327 299.453 255.608 299.797 256.202 299.825C256.773 299.852 257.436 299.795 258.192 299.654C258.969 299.514 259.83 299.467 260.775 299.511C261.457 299.543 262.014 299.636 262.447 299.788C262.882 299.919 263.092 300.138 263.077 300.446C263.069 300.621 263.012 300.894 262.906 301.264C262.823 301.634 262.715 302.047 262.584 302.504C262.475 302.939 262.345 303.373 262.192 303.807C262.062 304.219 261.936 304.577 261.811 304.879C261.736 305.074 261.653 305.202 261.562 305.264C261.493 305.327 261.392 305.355 261.26 305.349C261.019 305.337 260.583 305.229 259.954 305.023C259.325 304.817 258.626 304.696 257.857 304.66C256.758 304.608 255.979 304.792 255.519 305.211C255.081 305.608 254.843 306.225 254.804 307.06C254.777 307.631 254.788 308.105 254.836 308.482C254.907 308.838 255.015 309.118 255.16 309.323C255.326 309.529 255.55 309.683 255.832 309.784C256.114 309.864 256.465 309.913 256.882 309.933C258.354 310.002 259.615 309.896 260.663 309.615C261.713 309.312 262.541 309.021 263.149 308.741C263.329 308.662 263.453 308.601 263.521 308.561C263.589 308.52 263.678 308.502 263.788 308.507C263.986 308.516 264.123 308.633 264.201 308.857C264.298 309.126 264.389 309.537 264.473 310.092C264.579 310.648 264.661 311.235 264.72 311.855C264.802 312.453 264.852 313.039 264.869 313.613C264.908 314.187 264.92 314.628 264.906 314.936C264.879 315.507 264.546 315.8 263.906 315.814C262.827 315.807 261.672 315.786 260.44 315.75C259.231 315.715 258.011 315.668 256.78 315.61C255.33 315.542 253.935 315.465 252.595 315.38C251.278 315.296 250.125 315.209 249.139 315.118C248.766 315.079 248.483 315 248.291 314.88C248.12 314.762 248.033 314.505 248.03 314.108C248.032 312.655 248.074 311.071 248.154 309.357Z" fill="white"/>
<path d="M272.323 305.799C272.447 305.639 272.575 305.556 272.707 305.549C272.883 305.541 273.053 305.642 273.218 305.855C274.16 307.108 275.224 308.135 276.408 308.936C277.615 309.736 278.845 310.105 280.097 310.044C280.932 310.003 281.584 309.828 282.054 309.518C282.522 309.187 282.741 308.703 282.709 308.065C282.679 307.45 282.38 306.958 281.811 306.59C281.264 306.22 280.354 305.857 279.081 305.501C278.031 305.2 277.045 304.852 276.123 304.457C275.199 304.039 274.381 303.529 273.669 302.925C272.978 302.32 272.415 301.61 271.978 300.794C271.563 299.956 271.327 298.965 271.271 297.822C271.219 296.768 271.357 295.77 271.686 294.828C272.013 293.865 272.522 293.025 273.214 292.308C273.905 291.57 274.779 290.976 275.836 290.528C276.915 290.079 278.158 289.819 279.564 289.75C281.147 289.673 282.596 289.811 283.913 290.165C285.251 290.496 286.387 290.991 287.323 291.65C287.619 291.855 287.775 292.112 287.79 292.42C287.801 292.639 287.72 293.018 287.548 293.555C287.397 294.069 287.204 294.607 286.967 295.169C286.729 295.71 286.466 296.196 286.179 296.629C285.914 297.06 285.661 297.282 285.419 297.294C285.243 297.302 285.086 297.244 284.948 297.118C284.095 296.345 283.219 295.772 282.319 295.397C281.42 295.023 280.597 294.854 279.85 294.891C279.081 294.928 278.529 295.143 278.196 295.533C277.862 295.902 277.707 296.339 277.732 296.845C277.766 297.548 278.047 298.107 278.574 298.521C279.1 298.914 279.966 299.29 281.173 299.649C282.492 300.047 283.637 300.487 284.608 300.968C285.6 301.426 286.43 301.969 287.1 302.597C287.769 303.225 288.278 303.949 288.627 304.768C288.975 305.566 289.175 306.515 289.229 307.613C289.281 308.668 289.144 309.688 288.817 310.673C288.512 311.635 287.992 312.487 287.258 313.228C286.545 313.967 285.617 314.575 284.473 315.049C283.328 315.524 281.954 315.801 280.35 315.879C279.032 315.944 277.827 315.849 276.735 315.594C275.643 315.339 274.698 314.934 273.9 314.378C273.124 313.822 272.507 313.136 272.048 312.322C271.589 311.485 271.333 310.54 271.281 309.485C271.238 308.606 271.312 307.864 271.503 307.26C271.715 306.655 271.989 306.168 272.323 305.799Z" fill="white"/>
<path d="M296.076 311.271C295.942 310.202 296.153 309.332 296.712 308.663C297.293 307.991 298.139 307.585 299.253 307.445C300.409 307.299 301.331 307.482 302.016 307.994C302.723 308.504 303.145 309.293 303.279 310.363C303.412 311.411 303.196 312.247 302.631 312.873C302.089 313.495 301.239 313.88 300.083 314.026C298.969 314.166 298.051 314.005 297.327 313.542C296.626 313.076 296.209 312.319 296.076 311.271Z" fill="white"/>
<path d="M327.845 282.414C328.139 282.152 328.371 281.998 328.541 281.952C328.774 281.889 329.041 281.908 329.342 282.008C331.12 282.598 332.711 283.421 334.114 284.476C335.538 285.526 336.804 286.79 337.911 288.268C339.012 289.725 339.97 291.369 340.785 293.199C341.616 295.003 342.319 296.966 342.894 299.089C343.079 299.769 343.247 300.475 343.4 301.209C343.575 301.937 343.723 302.694 343.845 303.482C343.895 303.833 343.852 304.095 343.717 304.269C343.576 304.421 343.362 304.559 343.076 304.682C342.727 304.822 342.329 304.952 341.883 305.073C341.464 305.21 341.043 305.335 340.618 305.45C340.087 305.594 339.575 305.722 339.08 305.833C338.613 305.959 338.204 306.047 337.853 306.097C337.411 306.148 337.138 305.983 337.035 305.601C336.937 305.24 336.878 304.686 336.858 303.939C336.838 303.192 336.695 302.331 336.431 301.354C336.258 300.717 335.965 300.306 335.55 300.122C335.151 299.911 334.601 299.901 333.9 300.091C333.433 300.217 333.002 300.391 332.606 300.612C332.204 300.812 331.873 301.062 331.612 301.36C331.345 301.638 331.162 301.972 331.063 302.364C330.958 302.734 330.966 303.142 331.087 303.588C331.283 304.31 331.511 304.943 331.773 305.488C332.056 306.027 332.255 306.509 332.37 306.933C332.516 307.304 332.4 307.552 332.024 307.676C331.675 307.817 331.266 307.95 330.799 308.077C330.359 308.219 329.884 308.359 329.374 308.497C328.971 308.606 328.589 308.71 328.228 308.808C327.888 308.9 327.535 308.984 327.168 309.061C326.865 309.12 326.617 309.13 326.424 309.091C326.252 309.047 326.105 308.881 325.982 308.596C325.702 307.897 325.442 307.192 325.204 306.482C324.981 305.744 324.767 304.993 324.559 304.229C324.053 302.36 323.668 300.436 323.405 298.456C323.164 296.47 323.139 294.528 323.331 292.629C323.517 290.71 323.956 288.881 324.648 287.144C325.355 285.38 326.421 283.803 327.845 282.414ZM329.517 297.039C329.587 297.294 329.727 297.392 329.94 297.335C330.131 297.283 330.437 297.109 330.858 296.812C331.3 296.51 331.853 296.235 332.515 295.987C332.886 295.841 333.198 295.734 333.453 295.665C333.723 295.569 333.948 295.473 334.128 295.379C334.445 295.202 334.545 294.901 334.43 294.477C334.292 293.967 334.092 293.44 333.831 292.895C333.569 292.351 333.268 291.828 332.928 291.328C332.608 290.822 332.265 290.356 331.9 289.931C331.534 289.506 331.169 289.172 330.807 288.928C330.58 288.762 330.424 288.69 330.339 288.713C330.211 288.748 330.081 288.897 329.947 289.161C329.691 289.732 329.498 290.365 329.368 291.062C329.238 291.758 329.155 292.464 329.121 293.18C329.109 293.89 329.138 294.589 329.211 295.276C329.277 295.941 329.379 296.529 329.517 297.039Z" fill="white"/>
<path d="M344.624 276.654C344.546 276.308 344.564 276.067 344.679 275.932C344.815 275.789 344.978 275.66 345.17 275.544C345.514 275.396 345.862 275.258 346.214 275.131C346.558 274.983 346.906 274.846 347.258 274.719C347.61 274.591 347.965 274.475 348.324 274.368C348.676 274.241 349.021 274.128 349.36 274.029C349.851 273.898 350.167 274.029 350.309 274.422C350.354 274.547 350.473 274.972 350.665 275.697C350.857 276.423 351.117 277.335 351.444 278.434C351.763 279.511 352.135 280.734 352.559 282.101C352.983 283.468 353.454 284.866 353.97 286.293C354.516 287.803 355.074 289.251 355.645 290.635C356.229 291.991 356.758 293.227 357.231 294.343C357.718 295.43 358.131 296.345 358.47 297.088C358.822 297.803 359.039 298.274 359.121 298.502C359.256 298.874 359.134 299.152 358.756 299.336C358.419 299.504 358.044 299.663 357.63 299.813C357.216 299.963 356.792 300.116 356.358 300.273C355.923 300.43 355.489 300.587 355.054 300.744C354.62 300.902 354.209 301.027 353.821 301.12C353.648 301.159 353.45 301.161 353.227 301.125C352.995 301.068 352.796 300.871 352.627 300.534C352.06 299.289 351.473 297.957 350.867 296.539C350.273 295.092 349.696 293.593 349.135 292.041C348.215 289.497 347.356 286.895 346.558 284.236C345.781 281.569 345.137 279.042 344.624 276.654Z" fill="white"/>
<path d="M357.337 271.788C357.238 271.448 357.242 271.206 357.349 271.065C357.476 270.914 357.632 270.776 357.817 270.648C358.152 270.48 358.491 270.323 358.835 270.175C359.17 270.007 359.509 269.85 359.852 269.702C360.196 269.554 360.544 269.417 360.896 269.289C361.24 269.142 361.578 269.009 361.91 268.89C362.392 268.731 362.716 268.843 362.881 269.227C362.933 269.348 363.076 269.766 363.311 270.479C363.546 271.192 363.858 272.087 364.249 273.165C364.631 274.222 365.074 275.42 365.578 276.76C366.082 278.1 366.634 279.467 367.233 280.862C367.867 282.338 368.509 283.75 369.16 285.098C369.823 286.418 370.423 287.62 370.962 288.706C371.511 289.763 371.977 290.652 372.359 291.374C372.753 292.067 372.997 292.525 373.093 292.747C373.249 293.111 373.144 293.396 372.777 293.601C372.451 293.789 372.086 293.97 371.681 294.144C371.277 294.317 370.863 294.495 370.438 294.678C370.014 294.86 369.589 295.042 369.165 295.225C368.74 295.407 368.337 295.556 367.956 295.672C367.786 295.721 367.588 295.734 367.363 295.711C367.129 295.668 366.917 295.484 366.729 295.157C366.09 293.948 365.426 292.653 364.737 291.272C364.06 289.863 363.396 288.401 362.744 286.885C361.676 284.398 360.666 281.851 359.713 279.244C358.781 276.627 357.989 274.142 357.337 271.788Z" fill="white"/>
<path d="M388.593 274.024C387.483 272.202 386.374 270.275 385.267 268.245C384.167 266.184 383.21 263.998 382.395 261.687C382.307 261.457 382.296 261.271 382.363 261.127C382.43 260.983 382.555 260.83 382.739 260.666C382.979 260.468 383.347 260.206 383.843 259.878C384.347 259.52 384.874 259.16 385.427 258.798C385.986 258.406 386.524 258.04 387.038 257.701C387.572 257.35 387.989 257.084 388.29 256.901C389.53 256.145 390.724 255.547 391.872 255.106C393.02 254.665 394.107 254.441 395.133 254.434C396.178 254.416 397.136 254.657 398.007 255.157C398.885 255.627 399.662 256.416 400.337 257.524C401.149 258.859 401.556 260.182 401.557 261.495C401.558 262.808 401.31 264.157 400.813 265.541C400.751 265.734 400.765 265.905 400.856 266.056C400.948 266.206 401.082 266.279 401.26 266.274C401.95 266.266 402.641 266.386 403.333 266.634C404.025 266.882 404.693 267.197 405.337 267.577C405.981 267.958 406.59 268.386 407.162 268.862C407.735 269.337 408.248 269.798 408.699 270.244C409.14 270.671 409.514 271.074 409.822 271.454C410.119 271.814 410.319 272.079 410.422 272.248C410.673 272.661 410.585 273.024 410.157 273.336C409.905 273.515 409.563 273.736 409.131 273.999C408.71 274.281 408.256 274.571 407.767 274.868C407.373 275.109 406.972 275.339 406.566 275.561C406.19 275.79 405.865 275.975 405.591 276.116C405.279 276.28 405.034 276.365 404.857 276.37C404.687 276.345 404.52 276.24 404.356 276.056C402.786 274.153 401.396 272.823 400.188 272.065C398.979 271.307 397.98 271.168 397.191 271.648C396.195 272.255 396.103 273.225 396.916 274.559C397.145 274.935 397.436 275.35 397.79 275.804C398.132 276.24 398.469 276.666 398.8 277.083C399.138 277.469 399.438 277.814 399.701 278.118C399.963 278.422 400.123 278.621 400.18 278.715C400.352 278.997 400.27 279.265 399.936 279.52C399.64 279.752 399.285 279.994 398.871 280.246C398.477 280.486 398.054 280.743 397.603 281.018C397.227 281.247 396.851 281.476 396.475 281.704C396.118 281.922 395.75 282.12 395.37 282.3C395.152 282.407 394.945 282.469 394.748 282.485C394.552 282.502 394.35 282.38 394.141 282.121C393.318 281.025 392.431 279.801 391.479 278.449C390.527 277.096 389.565 275.622 388.593 274.024ZM393.959 268.941C394.354 268.701 394.691 268.303 394.97 267.746C395.238 267.171 395.417 266.534 395.507 265.836C395.604 265.107 395.586 264.358 395.453 263.589C395.319 262.82 395.052 262.107 394.652 261.449C394.172 260.66 393.612 260.228 392.974 260.153C392.343 260.047 391.699 260.195 391.041 260.595C390.76 260.767 390.514 260.955 390.304 261.161C390.094 261.366 389.963 261.574 389.911 261.786C389.86 261.997 389.875 262.297 389.957 262.685C390.039 263.073 390.185 263.525 390.396 264.041C390.595 264.537 390.853 265.088 391.171 265.694C391.476 266.281 391.818 266.884 392.195 267.504C392.653 268.256 393.003 268.725 393.246 268.912C393.477 269.08 393.715 269.09 393.959 268.941Z" fill="white"/>
<path d="M405.694 252.109C405.535 251.816 405.501 251.582 405.592 251.407C405.669 251.215 405.791 251.045 405.956 250.898C406.232 250.642 406.504 250.417 406.771 250.223C407.037 250.029 407.295 249.841 407.544 249.66C407.811 249.466 408.084 249.28 408.364 249.104C408.631 248.91 408.922 248.711 409.237 248.509C409.672 248.247 410.006 248.276 410.239 248.596C410.343 248.738 410.522 249.003 410.776 249.389C411.017 249.758 411.308 250.213 411.647 250.755C412.005 251.284 412.408 251.875 412.856 252.528C413.305 253.181 413.788 253.863 414.306 254.575C415.277 255.909 416.199 257.101 417.073 258.152C417.947 259.203 418.739 260.123 419.45 260.912C420.178 261.689 420.785 262.335 421.27 262.853C421.742 263.352 422.063 263.718 422.231 263.949C422.348 264.109 422.379 264.263 422.324 264.412C422.286 264.548 422.203 264.677 422.074 264.798C421.472 265.318 420.771 265.869 419.971 266.451C419.188 267.021 418.44 267.525 417.725 267.964C417.57 268.05 417.395 268.109 417.201 268.141C417.012 268.143 416.796 268.014 416.553 267.756C415.75 266.952 414.962 266.056 414.189 265.068C413.402 264.063 412.608 263.008 411.805 261.906C410.627 260.287 409.493 258.636 408.404 256.953C407.332 255.256 406.429 253.642 405.694 252.109ZM403.624 244.105C404.673 243.342 405.569 243.002 406.311 243.088C407.054 243.173 407.684 243.572 408.202 244.283C408.707 244.977 408.879 245.681 408.72 246.396C408.547 247.093 407.936 247.824 406.886 248.588C405.89 249.313 405.016 249.663 404.264 249.639C403.517 249.585 402.891 249.21 402.386 248.517C401.868 247.805 401.691 247.077 401.856 246.331C402.038 245.572 402.628 244.83 403.624 244.105Z" fill="white"/>
<path d="M426.071 257.231C425.701 256.795 425.417 256.358 425.218 255.92C425.023 255.452 424.88 254.995 424.792 254.551C424.72 254.092 424.685 253.66 424.687 253.255C424.689 252.849 424.706 252.46 424.736 252.088C424.764 251.747 424.728 251.518 424.629 251.4C424.529 251.283 424.355 251.214 424.107 251.194C423.487 251.143 422.746 250.949 421.883 250.613C421.021 250.277 420.192 249.64 419.394 248.701C418.725 247.912 418.262 247.094 418.003 246.245C417.748 245.366 417.686 244.495 417.819 243.631C417.969 242.754 418.305 241.892 418.827 241.045C419.349 240.198 420.046 239.404 420.919 238.664C421.455 238.209 421.879 237.892 422.19 237.715C422.501 237.537 422.774 237.349 423.009 237.15C423.177 237.007 423.277 236.836 423.309 236.636C423.358 236.421 423.377 236.189 423.366 235.938C423.341 235.671 423.309 235.395 423.27 235.111C423.216 234.81 423.186 234.519 423.178 234.237C423.073 233.604 423.164 233.167 423.449 232.925C423.6 232.796 423.872 232.71 424.266 232.664C424.677 232.604 425.107 232.6 425.555 232.652C426.006 232.674 426.422 232.739 426.803 232.848C427.201 232.943 427.471 233.074 427.614 233.242C427.77 233.427 427.807 233.64 427.725 233.883C427.568 234.276 427.45 234.665 427.372 235.049C427.28 235.416 427.369 235.759 427.639 236.077C427.781 236.245 427.983 236.363 428.242 236.431C428.488 236.482 428.784 236.577 429.132 236.715C429.466 236.836 429.848 237.031 430.278 237.3C430.709 237.569 431.18 238.006 431.693 238.61C432.305 239.331 432.75 240.093 433.027 240.897C433.305 241.7 433.386 242.526 433.269 243.375C433.139 244.207 432.804 245.054 432.265 245.915C431.727 246.776 430.946 247.641 429.922 248.509C429.386 248.965 428.975 249.399 428.692 249.813C428.411 250.196 428.225 250.555 428.135 250.891C428.062 251.213 428.069 251.51 428.156 251.783C428.229 252.038 428.343 252.258 428.5 252.443C428.913 252.929 429.404 252.931 429.975 252.447C430.26 252.205 430.537 251.868 430.806 251.438C431.093 250.993 431.397 250.518 431.719 250.014C432.041 249.51 432.396 248.992 432.783 248.462C433.169 247.932 433.623 247.446 434.143 247.005C434.378 246.806 434.677 246.58 435.041 246.329C435.405 246.078 435.788 245.883 436.189 245.744C436.577 245.589 436.956 245.526 437.328 245.557C437.717 245.573 438.047 245.74 438.317 246.059C438.559 246.344 438.809 246.724 439.067 247.197C439.325 247.671 439.543 248.15 439.722 248.632C439.901 249.115 440.012 249.569 440.056 249.994C440.085 250.402 439.998 250.692 439.797 250.863C439.646 250.991 439.434 251.098 439.162 251.185C438.799 251.234 438.407 251.35 437.986 251.534C437.568 251.687 437.099 251.984 436.579 252.425C436.193 252.753 435.859 253.108 435.578 253.491C435.297 253.874 435.015 254.272 434.731 254.686C434.448 255.099 434.132 255.526 433.784 255.966C433.435 256.406 432.993 256.853 432.456 257.309C431.282 258.305 430.148 258.806 429.056 258.81C427.948 258.797 426.954 258.271 426.071 257.231ZM426.772 244.95C427.259 244.537 427.541 244.037 427.621 243.451C427.717 242.85 427.544 242.289 427.103 241.769C426.69 241.283 426.196 241.024 425.621 240.993C425.032 240.944 424.477 241.141 423.957 241.582C423.421 242.038 423.128 242.56 423.08 243.149C423.034 243.707 423.218 244.23 423.631 244.716C424.043 245.202 424.536 245.477 425.108 245.539C425.698 245.588 426.252 245.391 426.772 244.95Z" fill="white"/>
<path d="M428.844 225.413C428.639 225.151 428.543 224.903 428.556 224.67C428.554 224.421 428.606 224.226 428.713 224.084C428.959 223.771 429.228 223.449 429.52 223.119C429.828 222.774 430.143 222.436 430.466 222.106C430.743 221.823 431.013 221.548 431.274 221.281C431.552 220.998 431.837 220.754 432.13 220.548C432.408 220.359 432.689 220.403 432.972 220.68C433.113 220.818 433.287 221.081 433.493 221.468C433.684 221.839 433.914 222.265 434.183 222.744C434.468 223.208 434.777 223.695 435.109 224.204C435.425 224.699 435.772 225.131 436.149 225.5C436.526 225.87 436.838 225.929 437.084 225.677C437.207 225.552 437.314 225.348 437.405 225.067C437.479 224.771 437.585 224.428 437.721 224.037C437.856 223.616 438.046 223.186 438.291 222.748C438.535 222.279 438.872 221.824 439.303 221.384C439.857 220.818 440.452 220.415 441.087 220.175C441.738 219.919 442.461 219.873 443.256 220.036C444.035 220.183 444.903 220.571 445.858 221.199C446.814 221.795 447.881 222.671 449.06 223.826C449.908 224.657 450.726 225.504 451.513 226.367C452.315 227.214 453.055 228.031 453.732 228.817C454.425 229.588 455.031 230.305 455.551 230.969C456.071 231.601 456.489 232.118 456.804 232.519C457.151 232.982 457.164 233.41 456.841 233.802C456.703 233.944 456.51 234.14 456.264 234.392C456.049 234.643 455.803 234.91 455.525 235.193C455.218 235.507 454.886 235.829 454.532 236.16C454.209 236.49 453.901 236.773 453.608 237.01C453.438 237.151 453.268 237.246 453.097 237.295C452.927 237.343 452.731 237.26 452.511 237.044C452.37 236.906 452.086 236.566 451.66 236.026C451.219 235.471 450.691 234.815 450.076 234.059C449.462 233.304 448.792 232.509 448.068 231.677C447.328 230.829 446.596 230.051 445.873 229.343C445.213 228.696 444.656 228.196 444.201 227.843C443.73 227.475 443.331 227.222 443.003 227.086C442.675 226.949 442.394 226.921 442.162 227.001C441.914 227.066 441.682 227.208 441.466 227.429C441.22 227.68 441.06 227.969 440.985 228.297C440.895 228.609 440.915 228.982 441.044 229.416C441.172 229.82 441.418 230.292 441.782 230.832C442.145 231.342 442.657 231.92 443.317 232.566C445.171 234.383 446.742 235.844 448.03 236.951C449.317 238.058 450.126 238.773 450.456 239.096C450.676 239.311 450.763 239.521 450.719 239.723C450.659 239.911 450.567 240.098 450.445 240.286C450.245 240.522 450.014 240.773 449.752 241.04C449.507 241.323 449.237 241.613 448.945 241.912C448.637 242.226 448.337 242.533 448.044 242.832C447.767 243.114 447.49 243.366 447.212 243.587C447.073 243.697 446.919 243.777 446.748 243.825C446.577 243.842 446.358 243.767 446.092 243.599C445.528 243.169 444.743 242.508 443.738 241.616C442.733 240.693 441.593 239.608 440.32 238.362C439.377 237.438 438.395 236.46 437.373 235.429C436.366 234.381 435.359 233.303 434.352 232.193C433.36 231.068 432.392 229.935 431.446 228.793C430.501 227.652 429.633 226.525 428.844 225.413Z" fill="white"/>
<path d="M447.49 214.381C447.282 214.15 447.178 213.948 447.178 213.777C447.178 213.605 447.234 213.451 447.347 213.316C447.431 213.215 447.517 213.129 447.604 213.058C447.689 212.957 447.766 212.864 447.837 212.779C448.09 212.475 448.101 212.169 447.87 211.862C447.622 211.541 447.212 211.071 446.641 210.451C446.367 210.195 446.198 209.968 446.133 209.771C446.069 209.574 446.063 209.34 446.116 209.07C446.201 208.625 446.361 208.157 446.598 207.667C446.818 207.163 447.049 206.697 447.291 206.268C447.53 205.809 447.76 205.413 447.979 205.081C448.213 204.732 448.379 204.498 448.478 204.379C448.59 204.244 448.71 204.187 448.837 204.206C448.978 204.209 449.102 204.284 449.209 204.43C449.279 204.517 449.389 204.695 449.538 204.962C449.688 205.23 449.872 205.541 450.092 205.896C450.295 206.237 450.522 206.583 450.772 206.935C451.02 207.257 451.271 207.523 451.525 207.734C451.761 207.931 452.013 207.869 452.281 207.548C452.394 207.413 452.524 207.221 452.674 206.973C452.823 206.725 452.975 206.508 453.13 206.322C453.313 206.103 453.578 206.094 453.924 206.297C454.468 206.607 455.069 207.036 455.729 207.585C456.067 207.867 456.406 208.164 456.747 208.477C457.071 208.775 457.358 209.101 457.609 209.453C457.77 209.672 457.766 209.884 457.597 210.087C457.456 210.256 457.284 210.427 457.081 210.602C456.861 210.763 456.653 210.961 456.456 211.198C456.287 211.401 456.242 211.592 456.321 211.773C456.414 211.936 456.556 212.126 456.748 212.343C457.128 212.746 457.631 213.208 458.256 213.729C459.135 214.461 460.089 215.155 461.117 215.811C462.128 216.453 463.144 217.056 464.164 217.619C465.166 218.168 466.141 218.665 467.088 219.11C467.186 219.164 467.285 219.217 467.383 219.271C467.496 219.307 467.586 219.354 467.654 219.41C467.823 219.551 467.906 219.778 467.903 220.09C467.884 220.389 467.813 220.731 467.692 221.117C467.554 221.489 467.371 221.881 467.143 222.292C466.946 222.7 466.732 223.095 466.501 223.475C466.284 223.838 466.071 224.162 465.863 224.447C465.672 224.746 465.526 224.954 465.428 225.072C465.132 225.427 464.831 225.548 464.524 225.436C464.07 225.258 463.531 224.995 462.905 224.646C462.263 224.283 461.584 223.86 460.869 223.379C460.153 222.897 459.411 222.379 458.642 221.824C457.87 221.238 457.129 220.65 456.419 220.058C455.692 219.453 455.023 218.881 454.412 218.343C453.784 217.791 453.289 217.336 452.929 216.978C452.537 216.624 452.229 216.581 452.003 216.852C451.919 216.953 451.843 217.062 451.775 217.177C451.691 217.279 451.613 217.372 451.543 217.456C451.374 217.659 451.125 217.666 450.795 217.477C450.696 217.424 450.589 217.363 450.474 217.296C450.372 217.211 450.254 217.113 450.119 217C449.629 216.592 449.143 216.144 448.661 215.657C448.162 215.155 447.772 214.73 447.49 214.381Z" fill="white"/>
<path d="M469.421 210.986C469.313 210.909 469.123 210.76 468.849 210.537C468.588 210.297 468.334 210.048 468.085 209.789C467.832 209.5 467.643 209.216 467.518 208.938C467.374 208.646 467.367 208.411 467.494 208.232C467.61 208.071 467.764 208.005 467.959 208.036C468.427 208.1 468.933 208.11 469.478 208.067C470.035 208.005 470.583 207.882 471.12 207.698C471.639 207.501 472.132 207.245 472.6 206.931C473.081 206.598 473.488 206.199 473.82 205.734C474.459 204.838 474.43 204.142 473.731 203.643C473.391 203.4 472.985 203.326 472.512 203.421C472.038 203.515 471.37 203.808 470.505 204.299C469.741 204.727 469.002 205.118 468.288 205.474C467.57 205.798 466.851 206.029 466.132 206.164C465.414 206.3 464.687 206.295 463.953 206.149C463.232 205.986 462.478 205.623 461.69 205.06C460.061 203.897 459.186 202.434 459.065 200.672C458.958 198.892 459.588 197.044 460.956 195.128C461.57 194.269 462.262 193.507 463.035 192.842C463.789 192.164 464.467 191.688 465.068 191.414C465.334 191.307 465.564 191.269 465.758 191.299C465.935 191.317 466.121 191.396 466.318 191.537C466.569 191.716 466.836 191.947 467.12 192.231C467.386 192.502 467.648 192.798 467.907 193.117C468.165 193.437 468.408 193.759 468.636 194.084C468.845 194.396 469.028 194.689 469.184 194.962C469.335 195.205 469.34 195.425 469.2 195.622C469.098 195.765 468.954 195.852 468.77 195.883C468.371 195.95 467.965 196.065 467.55 196.228C467.118 196.379 466.709 196.574 466.323 196.812C465.919 197.037 465.544 197.296 465.199 197.591C464.867 197.867 464.585 198.166 464.355 198.488C464.048 198.918 463.908 199.304 463.933 199.647C463.959 199.99 464.115 200.263 464.401 200.468C464.76 200.724 465.148 200.785 465.568 200.652C465.987 200.519 466.651 200.195 467.559 199.681C468.249 199.282 468.966 198.902 469.71 198.541C470.45 198.15 471.206 197.866 471.981 197.689C472.756 197.513 473.548 197.483 474.356 197.601C475.164 197.718 475.989 198.078 476.83 198.679C477.726 199.318 478.411 200.024 478.887 200.796C479.375 201.55 479.658 202.347 479.735 203.186C479.825 204.007 479.721 204.852 479.425 205.721C479.146 206.604 478.693 207.484 478.067 208.361C476.776 210.169 475.365 211.311 473.836 211.787C472.289 212.25 470.817 211.983 469.421 210.986Z" fill="white"/>
<path d="M484.516 177.841C482.61 176.879 480.651 175.83 478.638 174.691C476.616 173.523 474.648 172.173 472.735 170.641C472.539 170.493 472.431 170.34 472.412 170.182C472.393 170.025 472.418 169.828 472.488 169.592C472.587 169.297 472.761 168.88 473.009 168.34C473.247 167.77 473.505 167.185 473.782 166.586C474.05 165.957 474.313 165.363 474.571 164.803C474.839 164.224 475.052 163.777 475.21 163.462C475.864 162.166 476.562 161.027 477.303 160.046C478.045 159.065 478.849 158.3 479.717 157.752C480.595 157.185 481.536 156.883 482.539 156.847C483.533 156.782 484.61 157.042 485.768 157.626C487.163 158.33 488.208 159.239 488.902 160.353C489.597 161.467 490.099 162.743 490.409 164.181C490.457 164.378 490.56 164.516 490.717 164.595C490.874 164.674 491.027 164.665 491.175 164.567C491.756 164.196 492.407 163.932 493.126 163.777C493.844 163.623 494.578 163.537 495.325 163.52C496.073 163.503 496.816 163.545 497.553 163.646C498.291 163.747 498.969 163.867 499.589 164.007C500.189 164.137 500.719 164.282 501.181 164.441C501.623 164.59 501.933 164.709 502.11 164.798C502.542 165.016 502.659 165.371 502.46 165.862C502.341 166.147 502.167 166.515 501.94 166.967C501.731 167.429 501.498 167.915 501.241 168.426C501.033 168.838 500.815 169.246 500.587 169.648C500.389 170.041 500.211 170.37 500.052 170.635C499.874 170.94 499.711 171.141 499.563 171.238C499.405 171.307 499.209 171.306 498.973 171.236C496.634 170.451 494.751 170.055 493.325 170.05C491.898 170.045 490.977 170.455 490.56 171.28C490.035 172.321 490.47 173.193 491.864 173.897C492.257 174.095 492.724 174.294 493.264 174.492C493.785 174.681 494.296 174.865 494.797 175.044C495.289 175.193 495.726 175.328 496.109 175.447C496.493 175.566 496.733 175.651 496.832 175.7C497.126 175.849 497.199 176.12 497.05 176.513C496.921 176.867 496.747 177.26 496.529 177.692C496.321 178.104 496.098 178.546 495.86 179.018C495.662 179.41 495.464 179.803 495.266 180.196C495.078 180.569 494.87 180.933 494.642 181.286C494.513 181.492 494.37 181.654 494.212 181.771C494.055 181.889 493.818 181.893 493.504 181.784C492.227 181.287 490.827 180.716 489.304 180.071C487.781 179.427 486.185 178.683 484.516 177.841ZM486.386 170.69C486.594 170.277 486.67 169.761 486.613 169.141C486.536 168.511 486.352 167.876 486.059 167.235C485.756 166.565 485.345 165.939 484.826 165.356C484.306 164.774 483.703 164.309 483.016 163.963C482.191 163.546 481.487 163.475 480.906 163.748C480.315 163.992 479.846 164.458 479.499 165.145C479.35 165.44 479.241 165.73 479.171 166.015C479.101 166.3 479.1 166.546 479.168 166.753C479.237 166.96 479.408 167.206 479.682 167.493C479.957 167.779 480.32 168.085 480.771 168.412C481.203 168.728 481.713 169.059 482.302 169.406C482.872 169.742 483.481 170.074 484.129 170.401C484.915 170.797 485.46 171.011 485.765 171.042C486.05 171.062 486.257 170.945 486.386 170.69Z" fill="white"/>
<path d="M489.058 142.801C489.361 142.022 489.747 141.334 490.215 140.737C490.684 140.14 491.229 139.68 491.851 139.355C492.473 139.031 493.158 138.849 493.905 138.809C494.652 138.769 495.456 138.917 496.317 139.252C497.629 139.763 498.59 140.42 499.198 141.223C499.793 141.998 500.193 142.85 500.398 143.78C500.59 144.681 500.67 145.597 500.638 146.529C500.586 147.453 500.581 148.313 500.626 149.109C500.606 149.645 500.634 150.057 500.711 150.346C500.795 150.615 500.97 150.801 501.237 150.905C501.688 151.081 502.131 151.064 502.566 150.856C503.009 150.627 503.374 150.144 503.662 149.406C504.077 148.34 504.248 147.261 504.177 146.171C504.085 145.073 503.765 144.075 503.218 143.177C503.133 142.909 503.111 142.723 503.151 142.62C503.239 142.395 503.505 142.286 503.951 142.294C504.396 142.302 504.978 142.446 505.695 142.725C506.577 143.068 507.305 143.564 507.879 144.212C508.432 144.853 508.831 145.586 509.076 146.414C509.328 147.22 509.418 148.081 509.345 148.997C509.292 149.921 509.09 150.834 508.739 151.736C508.205 153.11 507.508 154.172 506.649 154.924C505.79 155.675 504.814 156.181 503.721 156.44C502.637 156.679 501.483 156.702 500.259 156.509C499.016 156.308 497.748 155.957 496.456 155.454C494.55 154.712 493.007 153.852 491.83 152.874C490.652 151.897 489.781 150.861 489.215 149.767C488.657 148.653 488.383 147.508 488.392 146.331C488.389 145.126 488.611 143.949 489.058 142.801ZM495.923 149.545C496.087 149.609 496.228 149.64 496.347 149.639C496.473 149.618 496.564 149.535 496.62 149.392C496.692 149.207 496.717 148.992 496.694 148.748C496.658 148.356 496.619 147.939 496.578 147.498C496.525 147.029 496.449 146.587 496.351 146.171C496.241 145.726 496.086 145.336 495.887 144.998C495.667 144.653 495.373 144.409 495.004 144.265C494.594 144.106 494.218 144.101 493.876 144.251C493.514 144.393 493.245 144.69 493.069 145.141C492.902 145.572 492.863 146.005 492.953 146.441C493.022 146.87 493.193 147.279 493.467 147.668C493.719 148.05 494.064 148.408 494.5 148.743C494.916 149.071 495.39 149.338 495.923 149.545Z" fill="white"/>
<path d="M508.365 136.778C508.238 136.741 508.009 136.662 507.678 136.541C507.353 136.399 507.031 136.247 506.712 136.084C506.378 135.894 506.106 135.688 505.897 135.465C505.666 135.237 505.582 135.017 505.644 134.806C505.7 134.616 505.825 134.504 506.019 134.469C506.482 134.376 506.964 134.22 507.464 134.001C507.971 133.76 508.448 133.465 508.895 133.116C509.321 132.76 509.704 132.357 510.043 131.906C510.389 131.435 510.643 130.925 510.804 130.376C511.116 129.321 510.86 128.672 510.037 128.429C509.636 128.311 509.228 128.374 508.811 128.618C508.395 128.862 507.859 129.358 507.203 130.105C506.62 130.759 506.05 131.37 505.492 131.94C504.919 132.482 504.315 132.934 503.681 133.298C503.046 133.661 502.358 133.894 501.617 133.996C500.882 134.077 500.05 133.981 499.121 133.707C497.201 133.141 495.896 132.045 495.206 130.419C494.522 128.772 494.513 126.82 495.179 124.562C495.478 123.549 495.883 122.602 496.396 121.721C496.887 120.834 497.372 120.162 497.85 119.707C498.066 119.519 498.271 119.407 498.465 119.373C498.637 119.332 498.84 119.346 499.072 119.414C499.367 119.501 499.696 119.632 500.057 119.808C500.397 119.977 500.741 120.17 501.09 120.388C501.438 120.605 501.773 120.83 502.095 121.063C502.395 121.289 502.664 121.506 502.901 121.713C503.123 121.894 503.2 122.1 503.131 122.332C503.081 122.501 502.974 122.63 502.81 122.719C502.455 122.912 502.109 123.154 501.771 123.444C501.412 123.728 501.089 124.046 500.801 124.397C500.493 124.742 500.224 125.11 499.994 125.501C499.77 125.871 499.602 126.245 499.49 126.625C499.341 127.132 499.334 127.543 499.471 127.858C499.607 128.173 499.844 128.381 500.182 128.481C500.604 128.605 500.991 128.536 501.344 128.273C501.697 128.01 502.218 127.487 502.908 126.704C503.43 126.101 503.983 125.508 504.568 124.924C505.139 124.312 505.761 123.796 506.436 123.376C507.11 122.955 507.849 122.669 508.651 122.515C509.453 122.362 510.35 122.432 511.342 122.724C512.397 123.035 513.275 123.478 513.978 124.052C514.686 124.605 515.214 125.266 515.561 126.033C515.914 126.78 516.093 127.612 516.097 128.531C516.122 129.456 515.982 130.436 515.677 131.469C515.048 133.601 514.089 135.141 512.8 136.091C511.489 137.035 510.011 137.264 508.365 136.778Z" fill="white"/>
<path d="M500.14 104.556C500.308 103.737 500.573 102.994 500.934 102.327C501.296 101.66 501.756 101.115 502.315 100.691C502.874 100.266 503.518 99.972 504.248 99.8076C504.978 99.6431 505.796 99.6538 506.701 99.8398C508.08 100.123 509.137 100.61 509.871 101.299C510.588 101.963 511.126 102.736 511.483 103.618C511.824 104.474 512.057 105.364 512.181 106.288C512.284 107.208 512.425 108.057 512.602 108.834C512.672 109.365 512.769 109.767 512.893 110.039C513.021 110.29 513.225 110.445 513.506 110.502C513.98 110.599 514.414 110.509 514.808 110.231C515.206 109.931 515.485 109.393 515.645 108.617C515.875 107.496 515.863 106.405 515.61 105.342C515.335 104.275 514.852 103.345 514.162 102.551C514.034 102.301 513.981 102.121 514.003 102.013C514.052 101.776 514.296 101.625 514.737 101.558C515.177 101.491 515.774 101.535 516.529 101.69C517.455 101.88 518.256 102.247 518.93 102.79C519.583 103.328 520.1 103.985 520.48 104.759C520.864 105.512 521.097 106.346 521.179 107.261C521.282 108.18 521.236 109.114 521.041 110.062C520.745 111.506 520.236 112.671 519.515 113.556C518.794 114.441 517.917 115.103 516.884 115.542C515.855 115.959 514.721 116.176 513.482 116.191C512.223 116.201 510.914 116.067 509.556 115.788C507.552 115.377 505.887 114.788 504.563 114.022C503.238 113.255 502.205 112.381 501.463 111.397C500.726 110.392 500.264 109.309 500.076 108.148C499.87 106.96 499.892 105.763 500.14 104.556ZM508.039 110.053C508.212 110.088 508.356 110.096 508.473 110.075C508.594 110.032 508.67 109.935 508.701 109.785C508.741 109.591 508.729 109.375 508.665 109.137C508.564 108.757 508.456 108.353 508.341 107.925C508.21 107.472 508.061 107.048 507.895 106.654C507.712 106.235 507.494 105.876 507.241 105.577C506.966 105.273 506.635 105.082 506.247 105.002C505.816 104.913 505.444 104.972 505.133 105.177C504.8 105.378 504.584 105.716 504.487 106.19C504.394 106.643 504.428 107.076 504.59 107.492C504.73 107.902 504.968 108.277 505.303 108.615C505.616 108.949 506.016 109.244 506.502 109.501C506.966 109.754 507.479 109.938 508.039 110.053Z" fill="white"/>
<path d="M512.96 94.0291C511.541 93.8492 510.31 93.6819 509.265 93.5272C508.201 93.3479 507.301 93.1894 506.564 93.0516C505.83 92.892 505.228 92.7491 504.756 92.6227C504.284 92.4963 503.921 92.3838 503.667 92.2851C503.201 92.1151 502.955 91.8731 502.928 91.5593C502.909 91.3573 502.908 91.0135 502.926 90.5278C502.943 90.0421 502.983 89.5483 503.047 89.0463C503.122 88.457 503.217 87.9701 503.332 87.5855C503.398 87.4165 503.49 87.3061 503.607 87.2545C503.724 87.2029 503.883 87.1786 504.082 87.1817C504.434 87.2041 504.624 87.1062 504.651 86.888C504.668 86.757 504.604 86.5605 504.46 86.2982C504.196 85.9321 503.976 85.5715 503.799 85.2165C503.603 84.8368 503.529 84.4615 503.576 84.0904C503.615 83.7849 503.885 83.5753 504.387 83.4615C504.868 83.3451 505.752 83.3685 507.04 83.5318C507.651 83.6093 508.215 83.7031 508.734 83.8132C509.252 83.9233 509.658 84.0413 509.953 84.1674C510.225 84.2907 510.397 84.4233 510.468 84.5654C510.541 84.6856 510.568 84.822 510.549 84.9748C510.524 85.1712 510.451 85.3949 510.331 85.6457C510.188 85.8938 510.098 86.1706 510.059 86.4761C510.04 86.6289 510.064 86.7872 510.132 86.9511C510.203 87.0931 510.351 87.2339 510.577 87.3735C510.806 87.4912 511.124 87.6091 511.53 87.7272C511.937 87.8452 512.456 87.9444 513.089 88.0247C514.115 88.1548 515.204 88.2263 516.355 88.2393C517.488 88.2277 518.545 88.1955 519.528 88.1427C520.51 88.0899 521.348 88.0409 522.041 87.9958C522.737 87.9288 523.172 87.9064 523.347 87.9285C523.565 87.9562 523.742 88.0452 523.879 88.1955C523.996 88.3213 524.044 88.5492 524.025 88.8794C524.008 89.1877 523.976 89.5274 523.929 89.8984C523.904 90.2722 523.863 90.6773 523.808 91.1138C523.753 91.5503 523.697 91.9868 523.642 92.4233C523.586 92.8598 523.508 93.3045 523.406 93.7573C523.302 94.2319 522.968 94.5001 522.406 94.5618C521.552 94.6531 520.298 94.6604 518.644 94.5837C516.972 94.4825 515.077 94.2976 512.96 94.0291Z" fill="white"/>
<path d="M508.502 78.117C508.063 78.0951 507.612 78.0727 507.151 78.0498C506.691 78.0048 506.231 77.9489 505.772 77.882C505.355 77.8393 505.062 77.7476 504.893 77.607C504.703 77.4434 504.598 77.1188 504.578 76.6332C504.549 76.3234 504.545 75.9707 504.565 75.5752C504.563 75.1566 504.574 74.7276 504.596 74.2881C504.618 73.8487 504.649 73.4427 504.689 73.0703C504.709 72.6748 504.747 72.3573 504.803 72.1178C504.864 71.7684 505.104 71.6041 505.521 71.6248C506.07 71.6522 506.98 71.7525 508.249 71.9257C509.496 72.0979 510.888 72.2222 512.426 72.2988C512.932 72.3239 513.471 72.3287 514.044 72.3132C514.618 72.2977 515.182 72.2486 515.737 72.1661C516.292 72.0836 516.826 71.967 517.34 71.8163C517.832 71.6646 518.271 71.4772 518.657 71.254C518.838 71.1529 518.933 71.0145 518.942 70.8387C518.951 70.6629 518.869 70.5267 518.698 70.4301C518.295 70.1236 517.834 69.8694 517.315 69.6674C516.774 69.4643 516.21 69.304 515.621 69.1866C515.011 69.0462 514.4 68.9387 513.787 68.8641C513.151 68.7885 512.548 68.7364 511.977 68.708C511.274 68.673 510.592 68.6611 509.93 68.6723C509.248 68.6604 508.631 68.6627 508.08 68.6793C507.506 68.6948 507.01 68.7142 506.59 68.7374C506.171 68.7386 505.874 68.7348 505.698 68.7261C505.435 68.7129 505.262 68.6493 505.179 68.535C505.075 68.4197 505.016 68.2736 505.003 68.0967C504.971 67.8528 504.964 67.5441 504.983 67.1706C504.98 66.774 504.99 66.3669 505.01 65.9495C505.03 65.5539 505.06 65.17 505.101 64.7975C505.121 64.402 505.16 64.0515 505.219 63.7461C505.286 63.2869 505.421 63.0072 505.624 62.9072C505.807 62.7841 506.141 62.7126 506.626 62.6927C507.046 62.6695 507.454 62.6678 507.849 62.6875C508.245 62.7071 508.64 62.7268 509.036 62.7465C511.475 62.8678 513.632 63.1183 515.507 63.498C517.383 63.8776 519.009 64.3881 520.387 65.0293C521.743 65.6695 522.861 66.452 523.74 67.3768C524.62 68.2797 525.284 69.3259 525.731 70.5156C525.789 70.6727 525.837 70.8183 525.875 70.9523C525.934 71.0874 525.96 71.2319 525.952 71.3857C525.94 71.6274 525.838 71.9197 525.644 72.2625C525.016 73.3766 524.208 74.3387 523.221 75.1486C522.213 75.9355 521.014 76.5697 519.624 77.0513C518.212 77.5317 516.588 77.8584 514.751 78.0314C512.914 78.2043 510.831 78.2328 508.502 78.117Z" fill="white"/>
<path d="M504.545 48.3097C504.515 47.4742 504.596 46.6897 504.79 45.9562C504.983 45.2226 505.301 44.5836 505.743 44.0391C506.186 43.4945 506.742 43.0559 507.412 42.7232C508.083 42.3905 508.879 42.2073 509.803 42.1735C511.21 42.1221 512.352 42.3445 513.228 42.8408C514.082 43.3159 514.788 43.9396 515.344 44.7118C515.878 45.4628 516.315 46.2723 516.655 47.1405C516.973 48.0095 517.31 48.8007 517.666 49.5141C517.861 50.0134 518.05 50.3807 518.235 50.6161C518.419 50.8295 518.654 50.931 518.939 50.9206C519.423 50.9029 519.823 50.7121 520.14 50.3483C520.456 49.9625 520.6 49.3739 520.571 48.5824C520.529 47.4392 520.26 46.3813 519.762 45.4088C519.242 44.4372 518.553 43.6478 517.694 43.0408C517.51 42.8274 517.416 42.6657 517.412 42.5558C517.403 42.3139 517.605 42.1084 518.017 41.9393C518.429 41.7701 519.02 41.6715 519.789 41.6433C520.734 41.6088 521.599 41.7753 522.383 42.1429C523.145 42.5113 523.802 43.0266 524.355 43.6889C524.907 44.3292 525.331 45.0842 525.626 45.9539C525.944 46.8229 526.121 47.7411 526.156 48.7084C526.21 50.1814 525.992 51.4333 525.501 52.4639C525.011 53.4945 524.315 54.3455 523.415 55.0168C522.514 55.6661 521.464 56.1448 520.264 56.4528C519.043 56.7617 517.74 56.9414 516.355 56.992C514.31 57.0668 512.553 56.8888 511.085 56.4582C509.616 56.0276 508.405 55.4224 507.452 54.6427C506.498 53.841 505.792 52.8982 505.334 51.8142C504.853 50.709 504.59 49.5408 504.545 48.3097ZM513.522 51.779C513.698 51.7726 513.84 51.7454 513.949 51.6974C514.056 51.6274 514.107 51.5155 514.101 51.3616C514.094 51.1637 514.032 50.9569 513.914 50.741C513.725 50.3957 513.524 50.0288 513.312 49.6403C513.077 49.2306 512.832 48.8543 512.577 48.5114C512.3 48.1473 512.003 47.8499 511.686 47.6193C511.347 47.3896 510.98 47.2819 510.584 47.2964C510.145 47.3124 509.798 47.4572 509.544 47.7307C509.267 48.005 509.138 48.3839 509.156 48.8676C509.173 49.3293 509.309 49.7426 509.565 50.1075C509.798 50.4732 510.117 50.7808 510.523 51.0301C510.906 51.2803 511.365 51.4727 511.898 51.6073C512.409 51.7427 512.951 51.7999 513.522 51.779Z" fill="white"/>
<path d="M515.697 35.3102C513.82 35.5492 512.132 35.6201 510.634 35.5226C509.136 35.4252 507.853 35.1894 506.785 34.8154C505.717 34.4413 504.886 33.9262 504.292 33.2699C503.677 32.6165 503.315 31.8642 503.207 31.0131C503.101 30.1838 503.206 29.4386 503.521 28.7775C503.814 28.1192 504.122 27.5809 504.446 27.1626C504.522 27.0642 504.552 26.9495 504.535 26.8186C504.507 26.6003 504.341 26.5107 504.035 26.5496C503.533 26.6135 502.96 26.7309 502.317 26.9016C501.651 27.075 501.02 27.2552 500.423 27.4422C499.801 27.6101 499.245 27.7697 498.754 27.9209C498.263 28.0722 497.931 28.1589 497.756 28.1812C497.516 28.2117 497.333 28.1685 497.207 28.0515C497.079 27.9126 496.988 27.7245 496.936 27.4873C496.875 27.1845 496.825 26.8804 496.786 26.5748C496.725 26.2721 496.676 25.9679 496.637 25.6624C496.581 25.2259 496.536 24.7881 496.503 24.3488C496.444 23.8905 496.409 23.4404 496.397 22.9983C496.405 22.7091 496.464 22.4797 496.576 22.3103C496.684 22.119 496.953 21.9628 497.381 21.8417C498.043 21.6464 498.893 21.4384 499.929 21.2177C500.966 20.9969 502.113 20.7732 503.37 20.5465C504.606 20.3226 505.921 20.1107 507.314 19.911C508.684 19.6922 510.056 19.4952 511.431 19.32C513.286 19.0837 515.059 18.9022 516.751 18.7754C518.42 18.6514 519.866 18.6003 521.089 18.6219C521.335 18.635 521.578 18.7149 521.818 18.8617C522.056 18.9867 522.249 19.195 522.397 19.4866C522.66 19.9854 522.956 20.746 523.286 21.7685C523.594 22.7938 523.86 24.1794 524.082 25.9253C524.452 28.8278 523.966 31.0188 522.624 32.4982C521.279 33.9558 518.97 34.8931 515.697 35.3102ZM519.511 26.3413C519.461 25.9484 519.343 25.6308 519.157 25.3884C518.97 25.146 518.629 24.9899 518.132 24.9201C517.611 24.8313 516.888 24.8125 515.963 24.8638C515.038 24.9151 513.811 25.038 512.284 25.2326C511.389 25.3466 510.643 25.4971 510.046 25.6841C509.427 25.8738 508.944 26.0905 508.598 26.3342C508.231 26.5806 507.976 26.8459 507.835 27.1301C507.694 27.4142 507.643 27.709 507.681 28.0145C507.723 28.3419 507.87 28.6226 508.121 28.8567C508.348 29.0717 508.713 29.236 509.215 29.3494C509.696 29.4656 510.347 29.5268 511.168 29.5331C511.965 29.5203 512.953 29.4388 514.131 29.2887C515.222 29.1497 516.133 28.9893 516.864 28.8075C517.571 28.6066 518.131 28.3911 518.545 28.1609C518.956 27.9089 519.231 27.6299 519.37 27.3239C519.508 27.018 519.555 26.6904 519.511 26.3413Z" fill="white"/>
<path d="M518.607 11.2029C517.551 11.4183 516.668 11.2728 515.958 10.7664C515.244 10.2384 514.775 9.42473 514.551 8.32536C514.318 7.18288 514.431 6.2505 514.89 5.52822C515.344 4.78438 516.1 4.30475 517.156 4.08933C518.191 3.87829 519.041 4.03039 519.708 4.54561C520.37 5.03927 520.817 5.85734 521.05 6.99982C521.274 8.09919 521.183 9.02717 520.776 9.78377C520.365 10.5188 519.642 10.9919 518.607 11.2029Z" fill="white"/>
</svg>
