<svg width="38" height="30" viewBox="0 0 38 30" fill="none" xmlns="http://www.w3.org/2000/svg">
<path d="M34.0811 7.49415C34.1133 7.81421 34.1133 8.12646 34.1133 8.46995C34.1133 18.4621 26.2916 30 11.9653 30C7.55664 30 3.46915 28.7588 0 26.6042C0.618343 26.6589 1.24472 26.7213 1.86307 26.7213C5.50888 26.7213 8.88166 25.5113 11.5478 23.466C8.14286 23.4114 5.26797 21.2178 4.26416 18.1967C4.73796 18.2826 5.24387 18.3372 5.74176 18.3372C6.44844 18.3372 7.13102 18.2514 7.78149 18.0796C4.22401 17.3849 1.53382 14.3091 1.53382 10.6557V10.5386C2.62595 11.1397 3.81446 11.4598 5.05917 11.491C2.98732 10.1405 1.59806 7.83763 1.59806 5.18345C1.59806 3.80172 1.98352 2.50586 2.66611 1.38173C6.51268 5.95628 12.2303 8.98517 18.7189 9.29742C18.5985 8.75098 18.5101 8.1733 18.5101 7.57221C18.5101 3.39578 22.0034 0 26.2997 0C28.5482 0 30.5638 0.921156 31.9852 2.38876C33.7358 2.04528 35.4222 1.43638 36.932 0.546448C36.3698 2.33411 35.1251 3.80172 33.527 4.74629C35.093 4.54333 36.6027 4.1452 38 3.5363C36.9239 5.07416 35.615 6.39344 34.0811 7.49415Z" fill="#F5F2EC"/>
</svg>
