<svg width="48" height="35" viewBox="0 0 48 35" fill="none" xmlns="http://www.w3.org/2000/svg">
<path d="M40.6439 2.90341C37.4792 1.53523 34.1761 0.540909 30.7509 0C30.2872 0.811364 29.8642 1.63864 29.4899 2.48977C25.8533 1.94886 22.1515 1.94886 18.5067 2.48977C18.1244 1.63864 17.6932 0.803409 17.205 0C13.788 0.540909 10.4605 1.52727 7.31203 2.95114C1.06383 11.8761 -0.628396 20.5545 0.193309 29.1455C3.87877 31.7625 7.96289 33.7511 12.348 35C13.3324 33.7352 14.203 32.383 14.9514 30.975C13.5358 30.4739 12.169 29.8534 10.8673 29.1057C11.2172 28.8511 11.5182 28.6045 11.868 28.358C19.5806 31.842 28.4648 31.842 36.1774 28.358C36.5273 28.6045 36.8283 28.8511 37.1781 29.1057C35.8764 29.8534 34.4852 30.4739 33.0533 30.975C33.7937 32.3909 34.6642 33.7352 35.6568 35C40.0419 33.7114 44.1586 31.7625 47.8115 29.1455C48.7633 19.1784 46.0704 10.5477 40.6439 2.90341ZM15.9928 23.8318C13.6091 23.8318 11.6972 21.7557 11.6972 19.2261C11.6972 16.6886 13.6091 14.5727 15.9928 14.5727C18.4254 14.5727 20.3373 16.6489 20.3373 19.2261C20.2885 21.7557 18.4254 23.8318 15.9928 23.8318ZM31.9632 23.8318C29.5794 23.8318 27.6675 21.7557 27.6675 19.2261C27.6675 16.6886 29.5794 14.5727 31.9632 14.5727C34.3957 14.5727 36.3076 16.6489 36.2669 19.2261C36.2181 21.7955 34.355 23.8318 31.9632 23.8318Z" fill="#F5F2EC"/>
</svg>
