<svg width="28" height="22" viewBox="0 0 28 22" fill="none" xmlns="http://www.w3.org/2000/svg">
<path d="M24.4734 5.88653C24.4962 6.11057 24.4962 6.32915 24.4962 6.56959C24.4962 13.5641 18.9387 21.6406 8.7595 21.6406C5.627 21.6406 2.72273 20.7718 0.257812 19.2636C0.697162 19.3018 1.14222 19.3455 1.58157 19.3455C4.17202 19.3455 6.56847 18.4985 8.4628 17.0669C6.04353 17.0286 4.00084 15.4931 3.28761 13.3783C3.62426 13.4384 3.98372 13.4767 4.33748 13.4767C4.8396 13.4767 5.32459 13.4166 5.78676 13.2964C3.25908 12.81 1.34763 10.657 1.34763 8.09964V8.01767C2.12362 8.43844 2.96808 8.66248 3.85249 8.68434C2.38038 7.73899 1.39328 6.12696 1.39328 4.26904C1.39328 3.30183 1.66716 2.39472 2.15215 1.60784C4.88525 4.81002 8.9478 6.93024 13.5581 7.14882C13.4725 6.76631 13.4098 6.36194 13.4098 5.94117C13.4098 3.01767 15.8918 0.640625 18.9444 0.640625C20.542 0.640625 21.9742 1.28543 22.9841 2.31276C24.228 2.07232 25.4262 1.64609 26.4989 1.02314C26.0995 2.2745 25.2151 3.30183 24.0797 3.96303C25.1923 3.82095 26.265 3.54226 27.2578 3.11603C26.4932 4.19254 25.5632 5.11604 24.4734 5.88653Z" fill="#1C9CEA"/>
</svg>
