<svg width="34" height="26" viewBox="0 0 34 26" fill="none" xmlns="http://www.w3.org/2000/svg">
<path d="M28.2005 2.71449C26.0247 1.73722 23.7539 1.02699 21.3991 0.640625C21.0803 1.22017 20.7894 1.81108 20.5321 2.41903C18.0319 2.03267 15.487 2.03267 12.9812 2.41903C12.7183 1.81108 12.4219 1.21449 12.0863 0.640625C9.73709 1.02699 7.44944 1.73153 5.28484 2.74858C0.989194 9.12358 -0.174209 15.3224 0.390712 21.4588C2.92447 23.3281 5.7323 24.7486 8.74708 25.6406C9.42387 24.7372 10.0223 23.7713 10.5369 22.7656C9.5637 22.4077 8.62403 21.9645 7.7291 21.4304C7.96961 21.2486 8.17656 21.0724 8.41708 20.8963C13.7195 23.3849 19.8274 23.3849 25.1298 20.8963C25.3703 21.0724 25.5773 21.2486 25.8178 21.4304C24.9229 21.9645 23.9664 22.4077 22.982 22.7656C23.491 23.777 24.0895 24.7372 24.7718 25.6406C27.7866 24.7202 30.6168 23.3281 33.1282 21.4588C33.7826 14.3395 31.9312 8.17472 28.2005 2.71449ZM11.2529 17.6634C9.61404 17.6634 8.29962 16.1804 8.29962 14.3736C8.29962 12.5611 9.61404 11.0497 11.2529 11.0497C12.9253 11.0497 14.2397 12.5327 14.2397 14.3736C14.2061 16.1804 12.9253 17.6634 11.2529 17.6634ZM22.2325 17.6634C20.5937 17.6634 19.2792 16.1804 19.2792 14.3736C19.2792 12.5611 20.5937 11.0497 22.2325 11.0497C23.9049 11.0497 25.2193 12.5327 25.1913 14.3736C25.1578 16.2088 23.8769 17.6634 22.2325 17.6634Z" fill="#5562EA"/>
</svg>
